<svg width="440" height="148" viewBox="0 0 440 148" fill="none" xmlns="http://www.w3.org/2000/svg">
<path d="M19.856 119.055V20.5657H39.312V100.006H73.36V119.055H19.856Z" fill="black"/>
<path d="M73.3604 100.006H39.3115V20.5659H19.8564V119.055H73.3604V100.006ZM40.3115 98.9036H74.3604V120.157H18.8564V19.4636H40.3115V98.9036Z" fill="#0DA6D9"/>
<path d="M56.784 86.1783V65.8595H94.8V86.1783H56.784Z" fill="black"/>
<path d="M94.7998 65.8597H56.7842V86.178H94.7998V65.8597ZM95.7998 87.2804H55.7842V64.7573H95.7998V87.2804Z" fill="#0DA6D9"/>
<g filter="url(#filter0_d_30_19)">
<path d="M131.104 39.6145V119.055H111.648V39.6145H87.456V20.5657H155.296V39.6145H131.104Z" fill="black"/>
</g>
<g filter="url(#filter1_d_30_19)">
<path d="M155.296 39.614V20.5659H87.4561V39.614H111.648V119.055H131.104V39.614H155.296ZM156.296 40.7164H132.104V120.157H110.648V40.7164H86.4561V19.4636H156.296V40.7164Z" fill="#0DA6D9"/>
</g>
<g filter="url(#filter2_d_30_19)">
<path d="M229.856 119.055V20.5657H272.096C276.277 20.5657 280.032 21.3652 283.36 22.9644C286.688 24.4695 289.504 26.586 291.808 29.314C294.197 32.042 296.032 35.3814 297.312 39.3323C298.592 43.1891 299.232 47.4221 299.232 52.0315C299.232 56.7349 298.592 61.015 297.312 64.8718C296.032 68.7286 294.197 72.021 291.808 74.749C289.504 77.4769 286.688 79.6405 283.36 81.2397C280.032 82.7448 276.277 83.4973 272.096 83.4973H249.312V119.055H229.856ZM249.312 64.8718H269.792C272.693 64.8718 274.955 64.0722 276.576 62.4731C278.283 60.7798 279.136 58.3341 279.136 55.1357V48.9272C279.136 45.7289 278.283 43.3302 276.576 41.731C274.955 40.0378 272.693 39.1912 269.792 39.1912H249.312V64.8718Z" fill="black"/>
</g>
<g filter="url(#filter3_d_30_19)">
<path d="M299.232 52.0317C299.232 47.4224 298.592 43.1887 297.312 39.3319C296.032 35.3813 294.197 32.0417 291.808 29.3138C289.504 26.5861 286.688 24.4695 283.36 22.9644C280.24 21.4652 276.745 20.6683 272.875 20.5746L272.096 20.5659V19.4636C276.394 19.4636 280.288 20.2854 283.76 21.9536H283.759C287.203 23.5147 290.136 25.7159 292.54 28.5624H292.539C295.03 31.41 296.931 34.8806 298.251 38.953C299.576 42.945 300.232 47.3088 300.232 52.0317C300.232 56.8457 299.577 61.2561 298.251 65.2504C296.927 69.2395 295.021 72.6675 292.527 75.515C290.126 78.3545 287.198 80.5976 283.76 82.2498L283.75 82.2552L283.739 82.2595C280.273 83.8271 276.386 84.5998 272.096 84.5998H250.312V120.157H228.856V19.4636H272.096V20.5659H229.856V119.055H249.312V83.4975H272.096L272.875 83.4889C276.487 83.4066 279.773 82.7482 282.731 81.5134L283.36 81.24C286.688 79.6409 289.504 77.4765 291.808 74.7486C294.197 72.0206 296.032 68.7282 297.312 64.8714C298.512 61.2556 299.15 57.268 299.225 52.908L299.232 52.0317ZM278.136 55.1353V48.927C278.136 45.9501 277.349 43.9026 275.929 42.5712L275.908 42.5518L275.889 42.5314C274.504 41.0848 272.517 40.2933 269.792 40.2933H250.312V63.7691H269.792V64.8714H249.312V39.1909H269.792C272.693 39.1909 274.955 40.0383 276.576 41.7315C278.283 43.3306 279.136 45.729 279.136 48.927V55.1353C279.136 58.3336 278.283 60.7797 276.576 62.4729L276.265 62.7636C274.67 64.1692 272.512 64.8714 269.792 64.8714V63.7691C272.531 63.7691 274.525 63.0167 275.909 61.6515C277.351 60.2199 278.136 58.1079 278.136 55.1353Z" fill="#0DA6D9"/>
</g>
<path d="M302.4 119.055V101.982H313.92V37.6391H302.4V20.5657H344.896V37.6391H333.376V101.982H344.896V119.055H302.4Z" fill="black"/>
<path d="M344.896 101.981H333.376V37.6386H344.896V20.5659H302.4V37.6386H313.92V101.981H302.4V119.055H344.896V101.981ZM345.896 38.7409H334.376V100.879H345.896V120.157H301.4V100.879H312.92V38.7409H301.4V19.4636H345.896V38.7409Z" fill="#0DA6D9"/>
<path d="M388.952 120.748C382.893 120.748 377.432 119.714 372.568 117.644C367.704 115.481 363.565 112.329 360.152 108.19C356.739 103.957 354.093 98.7364 352.216 92.5279C350.339 86.2253 349.4 78.888 349.4 70.5159C349.4 62.2379 350.339 54.9006 352.216 48.5039C354.093 42.0132 356.739 36.6043 360.152 32.2772C363.565 27.856 367.704 24.5165 372.568 22.2589C377.432 20.0013 382.893 18.8724 388.952 18.8724C397.229 18.8724 404.056 20.7538 409.432 24.5165C414.808 28.1852 419.117 34.0174 422.36 42.0132L405.592 51.6082C404.397 47.4692 402.52 44.1768 399.96 41.731C397.485 39.1912 393.816 37.9213 388.952 37.9213C383.235 37.9213 378.627 39.9908 375.128 44.1298C371.715 48.1747 370.008 54.101 370.008 61.9087V77.7121C370.008 85.5198 371.715 91.4931 375.128 95.6321C378.627 99.6771 383.235 101.7 388.952 101.7C393.731 101.7 397.528 100.289 400.344 97.4665C403.245 94.5503 405.379 91.0698 406.744 87.0249L422.616 97.1843C419.288 104.71 414.893 110.542 409.432 114.681C404.056 118.726 397.229 120.748 388.952 120.748Z" fill="black"/>
<path d="M370.008 77.7122V61.9088C370.008 54.1013 371.715 48.1749 375.128 44.13C378.627 39.991 383.235 37.9217 388.952 37.9217L389.85 37.9357C394.27 38.0844 397.64 39.3503 399.96 41.7315C402.52 44.1773 404.397 47.4697 405.592 51.6086L422.36 42.0136C419.219 34.2675 415.076 28.5517 409.933 24.8667L409.432 24.5168C404.224 20.8717 397.654 18.9918 389.724 18.878L388.952 18.8726C382.894 18.8726 377.432 20.0017 372.568 22.2593L371.664 22.6953C367.189 24.9386 363.352 28.1327 360.152 32.2775C356.739 36.6046 354.093 42.0132 352.216 48.5039C350.339 54.9005 349.4 62.2378 349.4 70.5157L349.411 72.0734C349.521 79.8008 350.456 86.6188 352.216 92.5274C354.093 98.7358 356.739 103.957 360.152 108.19C363.566 112.329 367.704 115.48 372.568 117.644C377.128 119.584 382.213 120.615 387.823 120.737L388.952 120.749C396.971 120.748 403.628 118.851 408.924 115.055L409.432 114.681C414.722 110.672 419.012 105.073 422.301 97.8852L422.616 97.1844L406.744 87.0253C405.379 91.0701 403.245 94.5504 400.344 97.4665L400.077 97.727C397.29 100.375 393.581 101.699 388.952 101.699V100.597C393.548 100.597 397.083 99.2442 399.671 96.6505C402.454 93.8526 404.497 90.5203 405.807 86.6409L406.221 85.4148L423.923 96.7463L423.515 97.6678C420.122 105.339 415.622 111.328 409.999 115.59L409.996 115.592C404.414 119.792 397.376 121.851 388.952 121.851C382.79 121.851 377.204 120.799 372.208 118.673L372.201 118.67L372.193 118.667C367.195 116.443 362.93 113.197 359.412 108.931L359.404 108.923C355.888 104.562 353.181 99.2045 351.268 92.8762L351.266 92.8719C349.348 86.4336 348.4 78.9754 348.4 70.5157C348.4 62.1482 349.349 54.6929 351.265 48.1648C353.176 41.5595 355.88 36.0127 359.397 31.554C362.911 27.0057 367.175 23.566 372.18 21.2431C377.183 18.9206 382.78 17.7702 388.952 17.7702C397.363 17.7702 404.39 19.6818 409.968 23.5856C415.549 27.3974 419.971 33.4223 423.272 41.5636L423.658 42.5131L404.999 53.1901L404.639 51.9424C403.491 47.9647 401.704 44.8561 399.305 42.5637L399.292 42.5508L399.278 42.5378C397.056 40.2572 393.673 39.0241 388.952 39.0241C383.478 39.0241 379.147 40.9925 375.86 44.8804C372.679 48.6503 371.008 54.2646 371.008 61.9088V77.7122C371.008 85.3495 372.677 91.0151 375.862 94.8828C379.146 98.6729 383.476 100.597 388.952 100.597V101.699L388.419 101.694C382.948 101.571 378.517 99.5505 375.128 95.6321C371.821 91.6225 370.116 85.8914 370.013 78.4389L370.008 77.7122Z" fill="#0DA6D9"/>
<g filter="url(#filter4_d_30_19)">
<path d="M186.5 119.055C181.255 119.055 176.399 118.081 172.164 116C167.929 113.919 164.316 110.864 161.324 106.834C158.333 102.805 156.079 97.8018 154.448 91.8243C152.816 85.8468 152 78.8952 152 71.1024C152 63.3095 152.816 56.4464 154.448 50.5132C156.079 44.58 158.333 39.5767 161.324 35.5031C164.316 31.4295 167.929 28.4187 172.164 26.3376C176.399 24.2565 181.255 23.1496 186.5 23.1496C191.745 23.1496 196.446 24.2565 200.72 26.3376C204.993 28.4187 208.567 31.4295 211.559 35.5031C214.551 39.5767 216.921 44.58 218.552 50.5132C220.184 56.4464 221 63.3095 221 71.1024C221 78.8952 220.184 85.8468 218.552 91.8243C216.921 97.8018 214.551 102.805 211.559 106.834C208.568 110.864 204.993 113.919 200.72 116C196.446 118.081 191.745 119.055 186.5 119.055ZM186.5 58.0982C191.232 58.0982 189.778 107.692 196.174 106.967C202.57 106.243 194.037 60.755 196.174 58.0982C198.311 55.4414 210.671 101.402 212.912 96.6129C215.153 91.8243 210.51 82.6135 210.51 78.8067C210.51 74.9999 210.51 74.9092 210.51 71.1024C210.51 67.2956 204.916 57.5381 203.75 53.8188C202.584 50.0994 181.684 42.86 189.26 48.9703C196.836 55.0806 205.427 36.0948 196.174 35.2374C186.92 34.38 189.997 32.2729 186.5 32.2729C183.003 32.2729 186.138 34.38 176.826 35.2374C167.514 36.0948 175.357 55.0806 183.05 48.9703C190.743 42.86 170.299 50.0994 169.133 53.8188C167.968 57.5381 162.49 67.2956 162.49 71.1024C162.49 74.9092 162.49 74.9999 162.49 78.8067C162.49 82.6135 158.713 93.8682 161.324 96.6129C163.935 99.3576 174.689 55.4414 176.826 58.0982C178.963 60.755 170.43 106.243 176.826 106.967C183.222 107.692 181.768 58.0982 186.5 58.0982Z" fill="black"/>
<path d="M186.5 119.055C181.255 119.055 176.399 118.081 172.164 116C167.929 113.919 164.316 110.864 161.324 106.834C158.333 102.805 156.079 97.8018 154.448 91.8243C152.816 85.8468 152 78.8952 152 71.1024C152 63.3095 152.816 56.4464 154.448 50.5132C156.079 44.58 158.333 39.5767 161.324 35.5031C164.316 31.4295 167.929 28.4187 172.164 26.3376C176.399 24.2565 181.255 23.1496 186.5 23.1496C191.745 23.1496 196.446 24.2565 200.72 26.3376C204.993 28.4187 208.567 31.4295 211.559 35.5031C214.551 39.5767 216.921 44.58 218.552 50.5132C220.184 56.4464 221 63.3095 221 71.1024C221 78.8952 220.184 85.8468 218.552 91.8243C216.921 97.8018 214.551 102.805 211.559 106.834C208.568 110.864 204.993 113.919 200.72 116C196.446 118.081 191.745 119.055 186.5 119.055ZM186.5 58.0982C191.232 58.0982 189.778 107.692 196.174 106.967C202.57 106.243 194.037 60.755 196.174 58.0982C198.311 55.4414 210.671 101.402 212.912 96.6129C215.153 91.8243 210.51 82.6135 210.51 78.8067C210.51 74.9999 210.51 74.9092 210.51 71.1024C210.51 67.2956 204.916 57.5381 203.75 53.8188C202.584 50.0994 181.684 42.86 189.26 48.9703C196.836 55.0806 205.427 36.0948 196.174 35.2374C186.92 34.38 189.997 32.2729 186.5 32.2729C183.003 32.2729 186.138 34.38 176.826 35.2374C167.514 36.0948 175.357 55.0806 183.05 48.9703C190.743 42.86 170.299 50.0994 169.133 53.8188C167.968 57.5381 162.49 67.2956 162.49 71.1024C162.49 74.9092 162.49 74.9999 162.49 78.8067C162.49 82.6135 158.713 93.8682 161.324 96.6129C163.935 99.3576 174.689 55.4414 176.826 58.0982C178.963 60.755 170.43 106.243 176.826 106.967C183.222 107.692 181.768 58.0982 186.5 58.0982Z" fill="black" fill-opacity="0.2"/>
</g>
<g filter="url(#filter5_d_30_19)">
<path d="M220.5 71.1024C220.5 63.3505 219.689 56.5432 218.074 50.6731C216.459 44.7997 214.117 39.8613 211.171 35.8494C208.229 31.8434 204.718 28.8876 200.518 26.8421C196.31 24.7934 191.679 23.7008 186.5 23.7008C181.319 23.7008 176.532 24.7942 172.367 26.841C168.203 28.8873 164.654 31.8448 161.713 35.8494C158.771 39.8559 156.543 44.7918 154.926 50.6731C153.311 56.5432 152.5 63.3505 152.5 71.1024C152.5 78.8546 153.312 85.7505 154.927 91.6651C156.544 97.5907 158.77 102.525 161.711 106.486C164.654 110.45 168.205 113.451 172.367 115.496C176.525 117.54 181.31 118.504 186.5 118.504C191.687 118.504 196.318 117.541 200.518 115.496C204.716 113.452 208.228 110.451 211.172 106.486C214.116 102.52 216.458 97.5827 218.073 91.6651C219.688 85.7505 220.5 78.8546 220.5 71.1024ZM176.573 57.4326C176.803 57.4186 176.997 57.5173 177.142 57.6662L177.2 57.733L177.291 57.8643C177.373 58.0019 177.43 58.156 177.473 58.3046C177.531 58.5097 177.573 58.7472 177.604 59.0054C177.664 59.5221 177.685 60.1775 177.677 60.9378C177.66 62.4613 177.526 64.4778 177.326 66.8049C176.928 71.4368 176.256 77.4527 175.727 83.3123C175.193 89.2092 174.796 95.014 174.928 99.3816C174.994 101.571 175.192 103.356 175.554 104.601C175.926 105.883 176.399 106.365 176.877 106.419C177.329 106.47 177.863 106.099 178.437 104.83C178.988 103.61 179.464 101.789 179.881 99.5269C180.712 95.0138 181.275 88.9125 181.789 82.7536C182.302 76.6118 182.766 70.4123 183.397 65.7542C183.713 63.4287 184.074 61.4526 184.516 60.0475C184.735 59.348 184.986 58.7518 185.284 58.3208C185.581 57.8915 185.982 57.5468 186.5 57.5468C187.018 57.5468 187.419 57.8915 187.716 58.3208C188.014 58.7518 188.265 59.348 188.484 60.0475C188.926 61.4526 189.287 63.4287 189.603 65.7542C190.234 70.4123 190.698 76.6118 191.211 82.7536C191.725 88.9125 192.288 95.0138 193.119 99.5269C193.536 101.789 194.012 103.61 194.563 104.83C195.137 106.099 195.671 106.47 196.123 106.419C196.601 106.365 197.074 105.883 197.446 104.601C197.808 103.356 198.006 101.571 198.072 99.3816C198.204 95.014 197.807 89.2092 197.273 83.3123C196.744 77.4527 196.072 71.4368 195.674 66.8049C195.474 64.4778 195.34 62.4613 195.323 60.9378C195.315 60.1775 195.336 59.5221 195.396 59.0054C195.427 58.7472 195.469 58.5097 195.527 58.3046C195.584 58.1064 195.667 57.8986 195.8 57.733L195.862 57.663C196.015 57.5086 196.217 57.4161 196.45 57.4402C196.68 57.4639 196.87 57.5947 197.008 57.7201C197.285 57.9725 197.564 58.397 197.842 58.901C198.409 59.9304 199.088 61.5204 199.836 63.4526C201.335 67.326 203.156 72.6872 204.972 77.9598C206.792 83.244 208.607 88.4379 210.105 92.0106C210.859 93.8068 211.514 95.1471 212.032 95.8861C212.159 96.0675 212.27 96.1999 212.362 96.2898C212.402 96.328 212.435 96.354 212.46 96.3727C212.462 96.3685 212.466 96.3644 212.468 96.3598C212.967 95.2928 213.1 93.9381 212.983 92.3917C212.867 90.8496 212.509 89.1707 212.071 87.4935C211.628 85.7929 211.133 84.195 210.722 82.6793C210.324 81.2134 210.01 79.8507 210.01 78.8071V71.1024C210.01 70.2644 209.695 69.0259 209.153 67.5218C208.619 66.0371 207.891 64.3618 207.12 62.6753C206.341 60.9693 205.553 59.3274 204.852 57.8019C204.165 56.3089 203.582 54.9692 203.277 53.9985C203.186 53.7065 202.847 53.2723 202.186 52.7358C201.549 52.2195 200.694 51.6711 199.705 51.1253C198.595 50.5125 197.331 49.9141 196.049 49.3727C195.729 49.6158 195.398 49.8331 195.058 50.0175C193.183 51.0316 191.025 51.0762 188.965 49.4147C188.481 49.0243 188.098 48.6786 187.812 48.3726C187.535 48.075 187.317 47.7809 187.202 47.4931C187.08 47.1853 187.047 46.7825 187.315 46.4585C187.53 46.2001 187.849 46.1138 188.104 46.0796C188.644 46.007 189.425 46.1057 190.306 46.2981C191.203 46.4942 192.258 46.8005 193.375 47.182C194.189 47.4602 195.041 47.7801 195.893 48.1282C196.969 47.1897 197.908 45.891 198.585 44.4616C199.522 42.4843 199.916 40.3599 199.575 38.728C199.407 37.9232 199.063 37.2469 198.522 36.7461C197.981 36.2446 197.208 35.8866 196.132 35.7869C191.483 35.3562 189.829 34.6055 188.893 33.8858C188.666 33.7119 188.486 33.5424 188.341 33.411C188.191 33.2755 188.075 33.1782 187.944 33.0989C187.699 32.9503 187.331 32.8243 186.5 32.8243C185.669 32.8243 185.306 32.9499 185.066 33.0967C184.938 33.1754 184.825 33.272 184.678 33.4078C184.535 33.5394 184.357 33.71 184.132 33.8847C183.201 34.6063 181.544 35.3563 176.867 35.7869C175.784 35.8867 174.989 36.2452 174.419 36.7526C173.85 37.2596 173.474 37.9437 173.271 38.7517C172.859 40.3872 173.165 42.5095 174.013 44.481C174.643 45.9471 175.551 47.2748 176.612 48.2144C177.509 47.8333 178.407 47.4837 179.262 47.183C180.346 46.8015 181.368 46.4944 182.233 46.2981C183.08 46.106 183.833 46.0066 184.35 46.0807C184.59 46.1152 184.915 46.2047 185.117 46.493C185.363 46.8427 185.282 47.2442 185.154 47.5211C185.027 47.7964 184.803 48.0828 184.517 48.3791C184.223 48.6826 183.834 49.028 183.343 49.4179C181.258 51.0736 179.124 51.0354 177.297 50.0143C177.01 49.8542 176.733 49.6677 176.464 49.4631C175.288 49.9797 174.133 50.5454 173.109 51.1231C172.143 51.6687 171.306 52.2166 170.682 52.7325C170.034 53.268 169.699 53.7031 169.606 53.9985C169.303 54.9674 168.726 56.3055 168.051 57.7987C167.364 59.3159 166.584 60.974 165.823 62.6721C165.067 64.3584 164.354 66.0337 163.83 67.5186C163.3 69.0223 162.99 70.2622 162.99 71.1024V78.8071C162.99 79.8267 162.741 81.3014 162.43 82.9226C162.113 84.5717 161.727 86.4008 161.42 88.2094C161.113 90.0171 160.893 91.7573 160.905 93.2024C160.918 94.6251 161.156 95.6166 161.615 96.1531C161.617 96.1521 161.619 96.1521 161.62 96.151C161.759 96.0451 161.965 95.7917 162.232 95.3371C162.755 94.4479 163.384 93.007 164.087 91.1656C165.489 87.4945 167.139 82.3625 168.781 77.2063C170.42 72.0608 172.051 66.8909 173.405 63.1759C174.081 61.3235 174.698 59.8024 175.223 58.8224C175.479 58.3443 175.743 57.9358 176.015 57.6942C176.151 57.5728 176.341 57.4469 176.573 57.4326ZM190.111 47.379C189.242 47.189 188.596 47.1246 188.225 47.1744C188.212 47.1761 188.2 47.179 188.188 47.1809C188.25 47.2783 188.351 47.4113 188.51 47.5814C188.75 47.8388 189.093 48.1522 189.556 48.5255C191.283 49.9188 193.039 49.8819 194.617 49.0282C194.698 48.9842 194.778 48.9354 194.858 48.8872C194.256 48.6519 193.658 48.4326 193.079 48.2348C191.984 47.8609 190.964 47.5654 190.111 47.379ZM184.174 47.169C183.829 47.1323 183.237 47.1961 182.436 47.3779C181.615 47.564 180.628 47.8599 179.565 48.2337C178.941 48.4534 178.293 48.7004 177.641 48.9658C177.677 48.9872 177.712 49.011 177.749 49.0314C179.265 49.8783 180.996 49.9227 182.758 48.5233C183.228 48.1495 183.581 47.8348 183.832 47.5749C183.995 47.4067 184.103 47.2714 184.174 47.169ZM211.01 78.8071C211.01 79.6667 211.277 80.8829 211.68 82.3639C212.068 83.7952 212.595 85.5128 213.032 87.1889C213.475 88.8888 213.856 90.6496 213.98 92.3002C214.104 93.9463 213.978 95.5386 213.356 96.8658C213.261 97.0707 213.121 97.2744 212.912 97.3997C212.687 97.5347 212.447 97.54 212.23 97.4665C212.03 97.398 211.852 97.2641 211.7 97.1166C211.545 96.9657 211.392 96.7761 211.241 96.5611C210.647 95.7136 209.951 94.2696 209.197 92.4725C207.681 88.8576 205.853 83.6254 204.036 78.3506C202.215 73.0642 200.405 67.7324 198.916 63.8853C198.17 61.9572 197.514 60.4295 196.987 59.4727C196.777 59.0902 196.603 58.8332 196.471 58.6782C196.44 58.7964 196.411 58.9513 196.388 59.1475C196.336 59.5894 196.315 60.1857 196.323 60.9249C196.339 62.4002 196.47 64.3786 196.67 66.7004C197.071 71.3673 197.732 77.2676 198.269 83.2025C198.802 89.1002 199.205 94.9701 199.071 99.4182C199.004 101.636 198.804 103.544 198.399 104.936C198.006 106.29 197.345 107.389 196.225 107.516C195.078 107.645 194.257 106.625 193.668 105.321C193.056 103.967 192.56 102.032 192.14 99.7466C191.296 95.1647 190.728 89.0034 190.215 82.8548C189.7 76.6892 189.241 70.5357 188.614 65.9178C188.301 63.6053 187.949 61.7124 187.539 60.4082C187.333 59.7535 187.125 59.2844 186.921 58.9893C186.716 58.6926 186.574 58.6491 186.5 58.6491C186.426 58.6491 186.284 58.6926 186.079 58.9893C185.875 59.2844 185.667 59.7534 185.461 60.4082C185.051 61.7124 184.699 63.6053 184.386 65.9178C183.759 70.5357 183.3 76.6892 182.785 82.8548C182.272 89.0034 181.704 95.1647 180.86 99.7466C180.44 102.032 179.944 103.967 179.332 105.321C178.743 106.625 177.922 107.645 176.775 107.516C175.655 107.389 174.994 106.29 174.601 104.936C174.196 103.544 173.996 101.636 173.929 99.4182C173.795 94.9701 174.198 89.1002 174.731 83.2025C175.268 77.2676 175.929 71.3673 176.33 66.7004C176.53 64.3786 176.661 62.4002 176.677 60.9249C176.685 60.1857 176.664 59.5894 176.612 59.1475C176.589 58.9499 176.558 58.7946 176.527 58.676C176.413 58.8177 176.264 59.0471 176.084 59.3833C175.601 60.2858 175.007 61.7391 174.333 63.5871C172.989 67.2733 171.368 72.4131 169.725 77.5712C168.085 82.7187 166.424 87.8848 165.008 91.5929C164.302 93.4411 163.646 94.96 163.072 95.9367C162.791 96.4149 162.497 96.8217 162.19 97.0563C162.033 97.1768 161.834 97.2817 161.604 97.2878C161.358 97.2942 161.144 97.1849 160.979 97.0122C160.169 96.1604 159.919 94.7363 159.905 93.2131C159.892 91.6573 160.126 89.8315 160.437 88.007C160.747 86.1831 161.141 84.312 161.451 82.6944C161.767 81.0496 161.99 79.6907 161.99 78.8071V71.1024C161.99 70.0392 162.365 68.6319 162.898 67.1192C163.438 65.5878 164.168 63.8771 164.927 62.1833C165.681 60.5015 166.488 58.7838 167.156 57.3067C167.835 55.8055 168.382 54.5296 168.661 53.639C168.86 53.0046 169.419 52.3992 170.082 51.8509C170.769 51.283 171.66 50.7029 172.653 50.1424C173.553 49.6349 174.547 49.1385 175.566 48.6751C174.551 47.6542 173.708 46.3446 173.109 44.9525C172.199 42.8342 171.81 40.4312 172.307 38.4567C172.557 37.4599 173.036 36.5671 173.79 35.8957C174.543 35.2248 175.54 34.8024 176.784 34.6878C181.419 34.2611 182.851 33.5289 183.556 32.9826C183.739 32.8403 183.88 32.7072 184.038 32.5617C184.192 32.4205 184.364 32.2664 184.579 32.1343C185.027 31.8593 185.583 31.722 186.5 31.722C187.418 31.722 187.976 31.8588 188.427 32.1321C188.644 32.2636 188.818 32.417 188.975 32.5584C189.136 32.7041 189.278 32.8386 189.464 32.9815C190.177 33.5296 191.612 34.2612 196.216 34.6878C197.453 34.8025 198.436 35.2253 199.166 35.9021C199.897 36.5799 200.341 37.4802 200.55 38.4804C200.963 40.4585 200.473 42.8593 199.472 44.9719C198.836 46.3141 197.973 47.578 196.959 48.5793C198.078 49.0687 199.171 49.5987 200.152 50.1403C201.168 50.7006 202.078 51.28 202.778 51.8476C203.453 52.3949 204.023 53.0011 204.223 53.639C204.501 54.5278 205.054 55.8023 205.744 57.3035C206.419 58.7723 207.249 60.5062 208.014 62.1801C208.787 63.8737 209.532 65.5844 210.083 67.116C210.627 68.6282 211.01 70.037 211.01 71.1024V78.8071ZM221.5 71.1024C221.5 78.9356 220.68 85.9424 219.031 91.9826C217.383 98.0199 214.985 103.091 211.946 107.183C208.907 111.276 205.271 114.386 200.922 116.504C196.574 118.621 191.802 119.606 186.5 119.606C181.2 119.606 176.272 118.623 171.96 116.504C167.652 114.387 163.978 111.278 160.938 107.183C157.895 103.085 155.615 98.012 153.969 91.9826C152.32 85.9424 151.5 78.9356 151.5 71.1024C151.5 63.2686 152.32 56.3497 153.969 50.3534C155.615 44.3683 157.895 39.2969 160.936 35.1561C163.978 31.0137 167.655 27.9502 171.96 25.8345C176.265 23.7191 181.191 22.5984 186.5 22.5984C191.811 22.5984 196.581 23.7198 200.922 25.8334C205.269 27.95 208.906 31.0151 211.947 35.1561C214.984 39.2914 217.383 44.3604 219.031 50.3534C220.68 56.3497 221.5 63.2687 221.5 71.1024Z" fill="#0DA6D9"/>
</g>
<g filter="url(#filter6_d_30_19)">
<path d="M432 3.78378H8V136.216H432V3.78378ZM436 140H4V0H436V140Z" fill="black"/>
</g>
<defs>
<filter id="filter0_d_30_19" x="83.456" y="20.5657" width="75.84" height="106.489" filterUnits="userSpaceOnUse" color-interpolation-filters="sRGB">
<feFlood flood-opacity="0" result="BackgroundImageFix"/>
<feColorMatrix in="SourceAlpha" type="matrix" values="0 0 0 0 0 0 0 0 0 0 0 0 0 0 0 0 0 0 127 0" result="hardAlpha"/>
<feOffset dy="4"/>
<feGaussianBlur stdDeviation="2"/>
<feComposite in2="hardAlpha" operator="out"/>
<feColorMatrix type="matrix" values="0 0 0 0 0 0 0 0 0 0 0 0 0 0 0 0 0 0 0.25 0"/>
<feBlend mode="normal" in2="BackgroundImageFix" result="effect1_dropShadow_30_19"/>
<feBlend mode="normal" in="SourceGraphic" in2="effect1_dropShadow_30_19" result="shape"/>
</filter>
<filter id="filter1_d_30_19" x="82.4561" y="19.4636" width="77.8398" height="108.694" filterUnits="userSpaceOnUse" color-interpolation-filters="sRGB">
<feFlood flood-opacity="0" result="BackgroundImageFix"/>
<feColorMatrix in="SourceAlpha" type="matrix" values="0 0 0 0 0 0 0 0 0 0 0 0 0 0 0 0 0 0 127 0" result="hardAlpha"/>
<feOffset dy="4"/>
<feGaussianBlur stdDeviation="2"/>
<feComposite in2="hardAlpha" operator="out"/>
<feColorMatrix type="matrix" values="0 0 0 0 0 0 0 0 0 0 0 0 0 0 0 0 0 0 0.25 0"/>
<feBlend mode="normal" in2="BackgroundImageFix" result="effect1_dropShadow_30_19"/>
<feBlend mode="normal" in="SourceGraphic" in2="effect1_dropShadow_30_19" result="shape"/>
</filter>
<filter id="filter2_d_30_19" x="225.856" y="20.5657" width="77.376" height="106.489" filterUnits="userSpaceOnUse" color-interpolation-filters="sRGB">
<feFlood flood-opacity="0" result="BackgroundImageFix"/>
<feColorMatrix in="SourceAlpha" type="matrix" values="0 0 0 0 0 0 0 0 0 0 0 0 0 0 0 0 0 0 127 0" result="hardAlpha"/>
<feOffset dy="4"/>
<feGaussianBlur stdDeviation="2"/>
<feComposite in2="hardAlpha" operator="out"/>
<feColorMatrix type="matrix" values="0 0 0 0 0 0 0 0 0 0 0 0 0 0 0 0 0 0 0.25 0"/>
<feBlend mode="normal" in2="BackgroundImageFix" result="effect1_dropShadow_30_19"/>
<feBlend mode="normal" in="SourceGraphic" in2="effect1_dropShadow_30_19" result="shape"/>
</filter>
<filter id="filter3_d_30_19" x="224.856" y="19.4636" width="79.376" height="108.694" filterUnits="userSpaceOnUse" color-interpolation-filters="sRGB">
<feFlood flood-opacity="0" result="BackgroundImageFix"/>
<feColorMatrix in="SourceAlpha" type="matrix" values="0 0 0 0 0 0 0 0 0 0 0 0 0 0 0 0 0 0 127 0" result="hardAlpha"/>
<feOffset dy="4"/>
<feGaussianBlur stdDeviation="2"/>
<feComposite in2="hardAlpha" operator="out"/>
<feColorMatrix type="matrix" values="0 0 0 0 0 0 0 0 0 0 0 0 0 0 0 0 0 0 0.25 0"/>
<feBlend mode="normal" in2="BackgroundImageFix" result="effect1_dropShadow_30_19"/>
<feBlend mode="normal" in="SourceGraphic" in2="effect1_dropShadow_30_19" result="shape"/>
</filter>
<filter id="filter4_d_30_19" x="148" y="23.1496" width="77" height="103.906" filterUnits="userSpaceOnUse" color-interpolation-filters="sRGB">
<feFlood flood-opacity="0" result="BackgroundImageFix"/>
<feColorMatrix in="SourceAlpha" type="matrix" values="0 0 0 0 0 0 0 0 0 0 0 0 0 0 0 0 0 0 127 0" result="hardAlpha"/>
<feOffset dy="4"/>
<feGaussianBlur stdDeviation="2"/>
<feComposite in2="hardAlpha" operator="out"/>
<feColorMatrix type="matrix" values="0 0 0 0 0 0 0 0 0 0 0 0 0 0 0 0 0 0 0.25 0"/>
<feBlend mode="normal" in2="BackgroundImageFix" result="effect1_dropShadow_30_19"/>
<feBlend mode="normal" in="SourceGraphic" in2="effect1_dropShadow_30_19" result="shape"/>
</filter>
<filter id="filter5_d_30_19" x="147.5" y="22.5984" width="78" height="105.008" filterUnits="userSpaceOnUse" color-interpolation-filters="sRGB">
<feFlood flood-opacity="0" result="BackgroundImageFix"/>
<feColorMatrix in="SourceAlpha" type="matrix" values="0 0 0 0 0 0 0 0 0 0 0 0 0 0 0 0 0 0 127 0" result="hardAlpha"/>
<feOffset dy="4"/>
<feGaussianBlur stdDeviation="2"/>
<feComposite in2="hardAlpha" operator="out"/>
<feColorMatrix type="matrix" values="0 0 0 0 0 0 0 0 0 0 0 0 0 0 0 0 0 0 0.25 0"/>
<feBlend mode="normal" in2="BackgroundImageFix" result="effect1_dropShadow_30_19"/>
<feBlend mode="normal" in="SourceGraphic" in2="effect1_dropShadow_30_19" result="shape"/>
</filter>
<filter id="filter6_d_30_19" x="0" y="0" width="440" height="148" filterUnits="userSpaceOnUse" color-interpolation-filters="sRGB">
<feFlood flood-opacity="0" result="BackgroundImageFix"/>
<feColorMatrix in="SourceAlpha" type="matrix" values="0 0 0 0 0 0 0 0 0 0 0 0 0 0 0 0 0 0 127 0" result="hardAlpha"/>
<feOffset dy="4"/>
<feGaussianBlur stdDeviation="2"/>
<feComposite in2="hardAlpha" operator="out"/>
<feColorMatrix type="matrix" values="0 0 0 0 0 0 0 0 0 0 0 0 0 0 0 0 0 0 0.25 0"/>
<feBlend mode="normal" in2="BackgroundImageFix" result="effect1_dropShadow_30_19"/>
<feBlend mode="normal" in="SourceGraphic" in2="effect1_dropShadow_30_19" result="shape"/>
</filter>
</defs>
</svg>
