<svg width="474" height="166" viewBox="0 0 474 166" fill="none" xmlns="http://www.w3.org/2000/svg">
<mask id="path-1-outside-1_28_85" maskUnits="userSpaceOnUse" x="18" y="40" width="57" height="92" fill="black">
<rect fill="white" x="18" y="40" width="57" height="92"/>
<path d="M19.856 131V41.656H39.312V113.72H73.36V131H19.856Z"/>
</mask>
<path d="M19.856 131V41.656H39.312V113.72H73.36V131H19.856Z" fill="black"/>
<path d="M19.856 131H18.856V132H19.856V131ZM19.856 41.656V40.656H18.856V41.656H19.856ZM39.312 41.656H40.312V40.656H39.312V41.656ZM39.312 113.72H38.312V114.72H39.312V113.72ZM73.36 113.72H74.36V112.72H73.36V113.72ZM73.36 131V132H74.36V131H73.36ZM19.856 131H20.856V41.656H19.856H18.856V131H19.856ZM19.856 41.656V42.656H39.312V41.656V40.656H19.856V41.656ZM39.312 41.656H38.312V113.72H39.312H40.312V41.656H39.312ZM39.312 113.72V114.72H73.36V113.72V112.72H39.312V113.72ZM73.36 113.72H72.36V131H73.36H74.36V113.72H73.36ZM73.36 131V130H19.856V131V132H73.36V131Z" fill="#0DA6D9" mask="url(#path-1-outside-1_28_85)"/>
<mask id="path-3-outside-2_28_85" maskUnits="userSpaceOnUse" x="55" y="81" width="41" height="22" fill="black">
<rect fill="white" x="55" y="81" width="41" height="22"/>
<path d="M56.784 101.176V82.744H94.8V101.176H56.784Z"/>
</mask>
<path d="M56.784 101.176V82.744H94.8V101.176H56.784Z" fill="black"/>
<path d="M56.784 101.176H55.784V102.176H56.784V101.176ZM56.784 82.744V81.744H55.784V82.744H56.784ZM94.8 82.744H95.8V81.744H94.8V82.744ZM94.8 101.176V102.176H95.8V101.176H94.8ZM56.784 101.176H57.784V82.744H56.784H55.784V101.176H56.784ZM56.784 82.744V83.744H94.8V82.744V81.744H56.784V82.744ZM94.8 82.744H93.8V101.176H94.8H95.8V82.744H94.8ZM94.8 101.176V100.176H56.784V101.176V102.176H94.8V101.176Z" fill="#0DA6D9" mask="url(#path-3-outside-2_28_85)"/>
<g filter="url(#filter0_d_28_85)">
<mask id="path-5-outside-3_28_85" maskUnits="userSpaceOnUse" x="86" y="40" width="71" height="92" fill="black">
<rect fill="white" x="86" y="40" width="71" height="92"/>
<path d="M131.104 58.936V131H111.648V58.936H87.456V41.656H155.296V58.936H131.104Z"/>
</mask>
<path d="M131.104 58.936V131H111.648V58.936H87.456V41.656H155.296V58.936H131.104Z" fill="black"/>
<path d="M131.104 58.936V57.936H130.104V58.936H131.104ZM131.104 131V132H132.104V131H131.104ZM111.648 131H110.648V132H111.648V131ZM111.648 58.936H112.648V57.936H111.648V58.936ZM87.456 58.936H86.456V59.936H87.456V58.936ZM87.456 41.656V40.656H86.456V41.656H87.456ZM155.296 41.656H156.296V40.656H155.296V41.656ZM155.296 58.936V59.936H156.296V58.936H155.296ZM131.104 58.936H130.104V131H131.104H132.104V58.936H131.104ZM131.104 131V130H111.648V131V132H131.104V131ZM111.648 131H112.648V58.936H111.648H110.648V131H111.648ZM111.648 58.936V57.936H87.456V58.936V59.936H111.648V58.936ZM87.456 58.936H88.456V41.656H87.456H86.456V58.936H87.456ZM87.456 41.656V42.656H155.296V41.656V40.656H87.456V41.656ZM155.296 41.656H154.296V58.936H155.296H156.296V41.656H155.296ZM155.296 58.936V57.936H131.104V58.936V59.936H155.296V58.936Z" fill="#0DA6D9" mask="url(#path-5-outside-3_28_85)"/>
</g>
<g filter="url(#filter1_d_28_85)">
<mask id="path-7-outside-4_28_85" maskUnits="userSpaceOnUse" x="228" y="40" width="73" height="92" fill="black">
<rect fill="white" x="228" y="40" width="73" height="92"/>
<path d="M229.856 131V41.656H272.096C276.277 41.656 280.032 42.3813 283.36 43.832C286.688 45.1973 289.504 47.1173 291.808 49.592C294.197 52.0667 296.032 55.096 297.312 58.68C298.592 62.1787 299.232 66.0187 299.232 70.2C299.232 74.4667 298.592 78.3493 297.312 81.848C296.032 85.3467 294.197 88.3333 291.808 90.808C289.504 93.2827 286.688 95.2453 283.36 96.696C280.032 98.0613 276.277 98.744 272.096 98.744H249.312V131H229.856ZM249.312 81.848H269.792C272.693 81.848 274.955 81.1227 276.576 79.672C278.283 78.136 279.136 75.9173 279.136 73.016V67.384C279.136 64.4827 278.283 62.3067 276.576 60.856C274.955 59.32 272.693 58.552 269.792 58.552H249.312V81.848Z"/>
</mask>
<path d="M229.856 131V41.656H272.096C276.277 41.656 280.032 42.3813 283.36 43.832C286.688 45.1973 289.504 47.1173 291.808 49.592C294.197 52.0667 296.032 55.096 297.312 58.68C298.592 62.1787 299.232 66.0187 299.232 70.2C299.232 74.4667 298.592 78.3493 297.312 81.848C296.032 85.3467 294.197 88.3333 291.808 90.808C289.504 93.2827 286.688 95.2453 283.36 96.696C280.032 98.0613 276.277 98.744 272.096 98.744H249.312V131H229.856ZM249.312 81.848H269.792C272.693 81.848 274.955 81.1227 276.576 79.672C278.283 78.136 279.136 75.9173 279.136 73.016V67.384C279.136 64.4827 278.283 62.3067 276.576 60.856C274.955 59.32 272.693 58.552 269.792 58.552H249.312V81.848Z" fill="black"/>
<path d="M229.856 131H228.856V132H229.856V131ZM229.856 41.656V40.656H228.856V41.656H229.856ZM283.36 43.832L282.96 44.7487L282.97 44.753L282.98 44.7572L283.36 43.832ZM291.808 49.592L291.076 50.2734L291.082 50.2801L291.089 50.2866L291.808 49.592ZM297.312 58.68L296.37 59.0163L296.373 59.0236L297.312 58.68ZM297.312 81.848L298.251 82.1916L298.251 82.1916L297.312 81.848ZM291.808 90.808L291.089 90.1134L291.082 90.1199L291.076 90.1266L291.808 90.808ZM283.36 96.696L283.74 97.6212L283.75 97.617L283.76 97.6127L283.36 96.696ZM249.312 98.744V97.744H248.312V98.744H249.312ZM249.312 131V132H250.312V131H249.312ZM249.312 81.848H248.312V82.848H249.312V81.848ZM276.576 79.672L277.243 80.4172L277.245 80.4153L276.576 79.672ZM276.576 60.856L275.888 61.5819L275.908 61.6005L275.928 61.6179L276.576 60.856ZM249.312 58.552V57.552H248.312V58.552H249.312ZM229.856 131H230.856V41.656H229.856H228.856V131H229.856ZM229.856 41.656V42.656H272.096V41.656V40.656H229.856V41.656ZM272.096 41.656V42.656C276.161 42.656 279.776 43.3607 282.96 44.7487L283.36 43.832L283.76 42.9153C280.288 41.402 276.394 40.656 272.096 40.656V41.656ZM283.36 43.832L282.98 44.7572C286.183 46.0712 288.877 47.9112 291.076 50.2734L291.808 49.592L292.54 48.9106C290.131 46.3235 287.193 44.3234 283.74 42.9068L283.36 43.832ZM291.808 49.592L291.089 50.2866C293.369 52.6486 295.133 55.5519 296.37 59.0163L297.312 58.68L298.254 58.3437C296.931 54.6401 295.026 51.4847 292.527 48.8974L291.808 49.592ZM297.312 58.68L296.373 59.0236C297.608 62.3996 298.232 66.1216 298.232 70.2H299.232H300.232C300.232 65.9157 299.576 61.9578 298.251 58.3364L297.312 58.68ZM299.232 70.2H298.232C298.232 74.3663 297.607 78.1306 296.373 81.5044L297.312 81.848L298.251 82.1916C299.577 78.5681 300.232 74.5671 300.232 70.2H299.232ZM297.312 81.848L296.373 81.5044C295.137 84.883 293.373 87.7472 291.089 90.1134L291.808 90.808L292.527 91.5026C295.021 88.9194 296.927 85.8103 298.251 82.1916L297.312 81.848ZM291.808 90.808L291.076 90.1266C288.872 92.4936 286.172 94.3793 282.96 95.7793L283.36 96.696L283.76 97.6127C287.204 96.1113 290.136 94.0717 292.54 91.4894L291.808 90.808ZM283.36 96.696L282.98 95.7708C279.791 97.0794 276.168 97.744 272.096 97.744V98.744V99.744C276.387 99.744 280.273 99.0433 283.74 97.6212L283.36 96.696ZM272.096 98.744V97.744H249.312V98.744V99.744H272.096V98.744ZM249.312 98.744H248.312V131H249.312H250.312V98.744H249.312ZM249.312 131V130H229.856V131V132H249.312V131ZM249.312 81.848V82.848H269.792V81.848V80.848H249.312V81.848ZM269.792 81.848V82.848C272.856 82.848 275.384 82.0802 277.243 80.4172L276.576 79.672L275.909 78.9268C274.525 80.1652 272.531 80.848 269.792 80.848V81.848ZM276.576 79.672L277.245 80.4153C279.215 78.642 280.136 76.1208 280.136 73.016H279.136H278.136C278.136 75.7138 277.35 77.63 275.907 78.9287L276.576 79.672ZM279.136 73.016H280.136V67.384H279.136H278.136V73.016H279.136ZM279.136 67.384H280.136C280.136 64.2821 279.216 61.7876 277.224 60.0941L276.576 60.856L275.928 61.6179C277.349 62.8257 278.136 64.6832 278.136 67.384H279.136ZM276.576 60.856L277.264 60.13C275.406 58.3703 272.87 57.552 269.792 57.552V58.552V59.552C272.517 59.552 274.503 60.2697 275.888 61.5819L276.576 60.856ZM269.792 58.552V57.552H249.312V58.552V59.552H269.792V58.552ZM249.312 58.552H248.312V81.848H249.312H250.312V58.552H249.312Z" fill="#0DA6D9" mask="url(#path-7-outside-4_28_85)"/>
</g>
<mask id="path-9-outside-5_28_85" maskUnits="userSpaceOnUse" x="301" y="40" width="45" height="92" fill="black">
<rect fill="white" x="301" y="40" width="45" height="92"/>
<path d="M302.4 131V115.512H313.92V57.144H302.4V41.656H344.896V57.144H333.376V115.512H344.896V131H302.4Z"/>
</mask>
<path d="M302.4 131V115.512H313.92V57.144H302.4V41.656H344.896V57.144H333.376V115.512H344.896V131H302.4Z" fill="black"/>
<path d="M302.4 131H301.4V132H302.4V131ZM302.4 115.512V114.512H301.4V115.512H302.4ZM313.92 115.512V116.512H314.92V115.512H313.92ZM313.92 57.144H314.92V56.144H313.92V57.144ZM302.4 57.144H301.4V58.144H302.4V57.144ZM302.4 41.656V40.656H301.4V41.656H302.4ZM344.896 41.656H345.896V40.656H344.896V41.656ZM344.896 57.144V58.144H345.896V57.144H344.896ZM333.376 57.144V56.144H332.376V57.144H333.376ZM333.376 115.512H332.376V116.512H333.376V115.512ZM344.896 115.512H345.896V114.512H344.896V115.512ZM344.896 131V132H345.896V131H344.896ZM302.4 131H303.4V115.512H302.4H301.4V131H302.4ZM302.4 115.512V116.512H313.92V115.512V114.512H302.4V115.512ZM313.92 115.512H314.92V57.144H313.92H312.92V115.512H313.92ZM313.92 57.144V56.144H302.4V57.144V58.144H313.92V57.144ZM302.4 57.144H303.4V41.656H302.4H301.4V57.144H302.4ZM302.4 41.656V42.656H344.896V41.656V40.656H302.4V41.656ZM344.896 41.656H343.896V57.144H344.896H345.896V41.656H344.896ZM344.896 57.144V56.144H333.376V57.144V58.144H344.896V57.144ZM333.376 57.144H332.376V115.512H333.376H334.376V57.144H333.376ZM333.376 115.512V116.512H344.896V115.512V114.512H333.376V115.512ZM344.896 115.512H343.896V131H344.896H345.896V115.512H344.896ZM344.896 131V130H302.4V131V132H344.896V131Z" fill="#0DA6D9" mask="url(#path-9-outside-5_28_85)"/>
<mask id="path-11-outside-6_28_85" maskUnits="userSpaceOnUse" x="348" y="39" width="76" height="95" fill="black">
<rect fill="white" x="348" y="39" width="76" height="95"/>
<path d="M388.952 132.536C382.893 132.536 377.432 131.597 372.568 129.72C367.704 127.757 363.565 124.899 360.152 121.144C356.739 117.304 354.093 112.568 352.216 106.936C350.339 101.219 349.4 94.5627 349.4 86.968C349.4 79.4587 350.339 72.8027 352.216 67C354.093 61.112 356.739 56.2053 360.152 52.28C363.565 48.2693 367.704 45.24 372.568 43.192C377.432 41.144 382.893 40.12 388.952 40.12C397.229 40.12 404.056 41.8267 409.432 45.24C414.808 48.568 419.117 53.8587 422.36 61.112L405.592 69.816C404.397 66.0613 402.52 63.0747 399.96 60.856C397.485 58.552 393.816 57.4 388.952 57.4C383.235 57.4 378.627 59.2773 375.128 63.032C371.715 66.7013 370.008 72.0773 370.008 79.16V93.496C370.008 100.579 371.715 105.997 375.128 109.752C378.627 113.421 383.235 115.256 388.952 115.256C393.731 115.256 397.528 113.976 400.344 111.416C403.245 108.771 405.379 105.613 406.744 101.944L422.616 111.16C419.288 117.987 414.893 123.277 409.432 127.032C404.056 130.701 397.229 132.536 388.952 132.536Z"/>
</mask>
<path d="M388.952 132.536C382.893 132.536 377.432 131.597 372.568 129.72C367.704 127.757 363.565 124.899 360.152 121.144C356.739 117.304 354.093 112.568 352.216 106.936C350.339 101.219 349.4 94.5627 349.4 86.968C349.4 79.4587 350.339 72.8027 352.216 67C354.093 61.112 356.739 56.2053 360.152 52.28C363.565 48.2693 367.704 45.24 372.568 43.192C377.432 41.144 382.893 40.12 388.952 40.12C397.229 40.12 404.056 41.8267 409.432 45.24C414.808 48.568 419.117 53.8587 422.36 61.112L405.592 69.816C404.397 66.0613 402.52 63.0747 399.96 60.856C397.485 58.552 393.816 57.4 388.952 57.4C383.235 57.4 378.627 59.2773 375.128 63.032C371.715 66.7013 370.008 72.0773 370.008 79.16V93.496C370.008 100.579 371.715 105.997 375.128 109.752C378.627 113.421 383.235 115.256 388.952 115.256C393.731 115.256 397.528 113.976 400.344 111.416C403.245 108.771 405.379 105.613 406.744 101.944L422.616 111.16C419.288 117.987 414.893 123.277 409.432 127.032C404.056 130.701 397.229 132.536 388.952 132.536Z" fill="black"/>
<path d="M372.568 129.72L372.194 130.647L372.201 130.65L372.208 130.653L372.568 129.72ZM360.152 121.144L359.405 121.808L359.412 121.817L360.152 121.144ZM352.216 106.936L351.266 107.248L351.267 107.252L352.216 106.936ZM352.216 67L353.167 67.3078L353.169 67.3038L352.216 67ZM360.152 52.28L360.907 52.9362L360.914 52.9281L360.152 52.28ZM372.568 43.192L372.18 42.2704L372.18 42.2704L372.568 43.192ZM409.432 45.24L408.896 46.0843L408.906 46.0903L409.432 45.24ZM422.36 61.112L422.821 61.9995L423.658 61.565L423.273 60.7039L422.36 61.112ZM405.592 69.816L404.639 70.1192L404.999 71.2505L406.053 70.7035L405.592 69.816ZM399.96 60.856L399.279 61.5879L399.292 61.6L399.305 61.6117L399.96 60.856ZM375.128 63.032L374.396 62.3503L374.396 62.3509L375.128 63.032ZM375.128 109.752L374.388 110.425L374.396 110.433L374.404 110.442L375.128 109.752ZM400.344 111.416L401.017 112.156L401.018 112.155L400.344 111.416ZM406.744 101.944L407.246 101.079L406.22 100.484L405.807 101.595L406.744 101.944ZM422.616 111.16L423.515 111.598L423.922 110.762L423.118 110.295L422.616 111.16ZM409.432 127.032L409.996 127.858L409.999 127.856L409.432 127.032ZM388.952 132.536V131.536C382.997 131.536 377.66 130.614 372.928 128.787L372.568 129.72L372.208 130.653C377.204 132.581 382.79 133.536 388.952 133.536V132.536ZM372.568 129.72L372.942 128.793C368.213 126.884 364.201 124.111 360.892 120.471L360.152 121.144L359.412 121.817C362.93 125.686 367.195 128.63 372.194 130.647L372.568 129.72ZM360.152 121.144L360.899 120.48C357.589 116.755 355.006 112.143 353.165 106.62L352.216 106.936L351.267 107.252C353.181 112.993 355.888 117.853 359.405 121.808L360.152 121.144ZM352.216 106.936L353.166 106.624C351.329 101.03 350.4 94.4832 350.4 86.968H349.4H348.4C348.4 94.6422 349.348 101.408 351.266 107.248L352.216 106.936ZM349.4 86.968H350.4C350.4 79.54 351.329 72.9911 353.167 67.3078L352.216 67L351.265 66.6922C349.349 72.6142 348.4 79.3774 348.4 86.968H349.4ZM352.216 67L353.169 67.3038C355.012 61.5215 357.598 56.7413 360.907 52.9362L360.152 52.28L359.397 51.6238C355.88 55.6693 353.174 60.7025 351.263 66.6962L352.216 67ZM360.152 52.28L360.914 52.9281C364.225 49.0368 368.236 46.1011 372.956 44.1136L372.568 43.192L372.18 42.2704C367.172 44.3789 362.905 47.5018 359.39 51.6319L360.152 52.28ZM372.568 43.192L372.956 44.1136C377.68 42.1244 383.007 41.12 388.952 41.12V40.12V39.12C382.78 39.12 377.184 40.1635 372.18 42.2704L372.568 43.192ZM388.952 40.12V41.12C397.096 41.12 403.722 42.799 408.896 46.0842L409.432 45.24L409.968 44.3958C404.39 40.8544 397.363 39.12 388.952 39.12V40.12ZM409.432 45.24L408.906 46.0903C414.072 49.2887 418.265 54.4026 421.447 61.5201L422.36 61.112L423.273 60.7039C419.97 53.3148 415.544 47.8473 409.958 44.3897L409.432 45.24ZM422.36 61.112L421.899 60.2245L405.131 68.9284L405.592 69.816L406.053 70.7035L422.821 61.9995L422.36 61.112ZM405.592 69.816L406.545 69.5128C405.304 65.6118 403.335 62.458 400.615 60.1003L399.96 60.856L399.305 61.6117C401.705 63.6913 403.491 66.5109 404.639 70.1192L405.592 69.816ZM399.96 60.856L400.641 60.1241C397.914 57.5851 393.959 56.4 388.952 56.4V57.4V58.4C393.673 58.4 397.056 59.5189 399.279 61.5879L399.96 60.856ZM388.952 57.4V56.4C382.992 56.4 378.107 58.3683 374.396 62.3503L375.128 63.032L375.86 63.7137C379.146 60.1863 383.477 58.4 388.952 58.4V57.4ZM375.128 63.032L374.396 62.3509C370.75 66.2697 369.008 71.9291 369.008 79.16H370.008H371.008C371.008 72.2256 372.679 67.1329 375.86 63.7131L375.128 63.032ZM370.008 79.16H369.008V93.496H370.008H371.008V79.16H370.008ZM370.008 93.496H369.008C369.008 100.729 370.751 106.424 374.388 110.425L375.128 109.752L375.868 109.079C372.678 105.571 371.008 100.429 371.008 93.496H370.008ZM375.128 109.752L374.404 110.442C378.117 114.335 383 116.256 388.952 116.256V115.256V114.256C383.47 114.256 379.137 112.507 375.852 109.062L375.128 109.752ZM388.952 115.256V116.256C393.913 116.256 397.973 114.923 401.017 112.156L400.344 111.416L399.671 110.676C397.083 113.029 393.548 114.256 388.952 114.256V115.256ZM400.344 111.416L401.018 112.155C404.036 109.403 406.26 106.112 407.681 102.293L406.744 101.944L405.807 101.595C404.497 105.115 402.454 108.139 399.67 110.677L400.344 111.416ZM406.744 101.944L406.242 102.809L422.114 112.025L422.616 111.16L423.118 110.295L407.246 101.079L406.744 101.944ZM422.616 111.16L421.717 110.722C418.454 117.416 414.165 122.565 408.865 126.208L409.432 127.032L409.999 127.856C415.622 123.99 420.122 118.557 423.515 111.598L422.616 111.16ZM409.432 127.032L408.868 126.206C403.698 129.735 397.083 131.536 388.952 131.536V132.536V133.536C397.376 133.536 404.414 131.668 409.996 127.858L409.432 127.032Z" fill="#0DA6D9" mask="url(#path-11-outside-6_28_85)"/>
<g filter="url(#filter2_d_28_85)">
<path d="M186.5 131C181.255 131 176.399 130.116 172.164 128.229C167.929 126.341 164.316 123.57 161.324 119.914C158.333 116.259 156.079 111.72 154.448 106.298C152.816 100.875 152 94.5693 152 87.5C152 80.4308 152.816 74.205 154.448 68.8227C156.079 63.4404 158.333 58.9017 161.324 55.2064C164.316 51.511 167.929 48.7798 172.164 46.892C176.399 45.0041 181.255 44 186.5 44C191.745 44 196.446 45.0041 200.72 46.892C204.993 48.7798 208.567 51.511 211.559 55.2064C214.551 58.9017 216.921 63.4404 218.552 68.8227C220.184 74.205 221 80.4308 221 87.5C221 94.5693 220.184 100.875 218.552 106.298C216.921 111.72 214.551 116.259 211.559 119.914C208.568 123.569 204.993 126.341 200.72 128.229C196.446 130.116 191.745 131 186.5 131ZM186.5 75.7034C191.232 75.7034 189.778 120.692 196.174 120.035C202.57 119.378 194.037 78.1134 196.174 75.7034C198.311 73.2933 210.671 114.986 212.912 110.642C215.153 106.298 210.51 97.9422 210.51 94.4889C210.51 91.0356 210.51 90.9533 210.51 87.5C210.51 84.0467 204.916 75.1953 203.75 71.8213C202.584 68.4473 181.684 61.8801 189.26 67.4231C196.836 72.966 205.427 55.7431 196.174 54.9654C186.92 54.1876 189.997 52.2762 186.5 52.2762C183.003 52.2762 186.138 54.1876 176.826 54.9654C167.514 55.7432 175.357 72.966 183.05 67.4231C190.743 61.8801 170.299 68.4473 169.133 71.8213C167.968 75.1953 162.49 84.0467 162.49 87.5C162.49 90.9533 162.49 91.0356 162.49 94.4889C162.49 97.9422 158.713 108.152 161.324 110.642C163.935 113.132 174.689 73.2933 176.826 75.7034C178.963 78.1134 170.43 119.378 176.826 120.035C183.222 120.692 181.768 75.7034 186.5 75.7034Z" fill="black"/>
<path d="M186.5 131C181.255 131 176.399 130.116 172.164 128.229C167.929 126.341 164.316 123.57 161.324 119.914C158.333 116.259 156.079 111.72 154.448 106.298C152.816 100.875 152 94.5693 152 87.5C152 80.4308 152.816 74.205 154.448 68.8227C156.079 63.4404 158.333 58.9017 161.324 55.2064C164.316 51.511 167.929 48.7798 172.164 46.892C176.399 45.0041 181.255 44 186.5 44C191.745 44 196.446 45.0041 200.72 46.892C204.993 48.7798 208.567 51.511 211.559 55.2064C214.551 58.9017 216.921 63.4404 218.552 68.8227C220.184 74.205 221 80.4308 221 87.5C221 94.5693 220.184 100.875 218.552 106.298C216.921 111.72 214.551 116.259 211.559 119.914C208.568 123.569 204.993 126.341 200.72 128.229C196.446 130.116 191.745 131 186.5 131ZM186.5 75.7034C191.232 75.7034 189.778 120.692 196.174 120.035C202.57 119.378 194.037 78.1134 196.174 75.7034C198.311 73.2933 210.671 114.986 212.912 110.642C215.153 106.298 210.51 97.9422 210.51 94.4889C210.51 91.0356 210.51 90.9533 210.51 87.5C210.51 84.0467 204.916 75.1953 203.75 71.8213C202.584 68.4473 181.684 61.8801 189.26 67.4231C196.836 72.966 205.427 55.7431 196.174 54.9654C186.92 54.1876 189.997 52.2762 186.5 52.2762C183.003 52.2762 186.138 54.1876 176.826 54.9654C167.514 55.7432 175.357 72.966 183.05 67.4231C190.743 61.8801 170.299 68.4473 169.133 71.8213C167.968 75.1953 162.49 84.0467 162.49 87.5C162.49 90.9533 162.49 91.0356 162.49 94.4889C162.49 97.9422 158.713 108.152 161.324 110.642C163.935 113.132 174.689 73.2933 176.826 75.7034C178.963 78.1134 170.43 119.378 176.826 120.035C183.222 120.692 181.768 75.7034 186.5 75.7034Z" fill="black" fill-opacity="0.2"/>
<path d="M186.5 131C181.255 131 176.399 130.116 172.164 128.229C167.929 126.341 164.316 123.57 161.324 119.914C158.333 116.259 156.079 111.72 154.448 106.298C152.816 100.875 152 94.5693 152 87.5C152 80.4308 152.816 74.205 154.448 68.8227C156.079 63.4404 158.333 58.9017 161.324 55.2064C164.316 51.511 167.929 48.7798 172.164 46.892C176.399 45.0041 181.255 44 186.5 44C191.745 44 196.446 45.0041 200.72 46.892C204.993 48.7798 208.567 51.511 211.559 55.2064C214.551 58.9017 216.921 63.4404 218.552 68.8227C220.184 74.205 221 80.4308 221 87.5C221 94.5693 220.184 100.875 218.552 106.298C216.921 111.72 214.551 116.259 211.559 119.914C208.568 123.569 204.993 126.341 200.72 128.229C196.446 130.116 191.745 131 186.5 131ZM186.5 75.7034C191.232 75.7034 189.778 120.692 196.174 120.035C202.57 119.378 194.037 78.1134 196.174 75.7034C198.311 73.2933 210.671 114.986 212.912 110.642C215.153 106.298 210.51 97.9422 210.51 94.4889C210.51 91.0356 210.51 90.9533 210.51 87.5C210.51 84.0467 204.916 75.1953 203.75 71.8213C202.584 68.4473 181.684 61.8801 189.26 67.4231C196.836 72.966 205.427 55.7431 196.174 54.9654C186.92 54.1876 189.997 52.2762 186.5 52.2762C183.003 52.2762 186.138 54.1876 176.826 54.9654C167.514 55.7432 175.357 72.966 183.05 67.4231C190.743 61.8801 170.299 68.4473 169.133 71.8213C167.968 75.1953 162.49 84.0467 162.49 87.5C162.49 90.9533 162.49 91.0356 162.49 94.4889C162.49 97.9422 158.713 108.152 161.324 110.642C163.935 113.132 174.689 73.2933 176.826 75.7034C178.963 78.1134 170.43 119.378 176.826 120.035C183.222 120.692 181.768 75.7034 186.5 75.7034Z" stroke="#0DA6D9"/>
</g>
<g filter="url(#filter3_d_28_85)">
<path d="M8 27H432V139.5H8V27Z" fill="#D9D9D9" fill-opacity="0.1" shape-rendering="crispEdges"/>
<path d="M434 25V141.5H6V25H434Z" stroke="black" stroke-width="4" shape-rendering="crispEdges"/>
</g>
<defs>
<filter id="filter0_d_28_85" x="82.456" y="40.656" width="77.84" height="99.344" filterUnits="userSpaceOnUse" color-interpolation-filters="sRGB">
<feFlood flood-opacity="0" result="BackgroundImageFix"/>
<feColorMatrix in="SourceAlpha" type="matrix" values="0 0 0 0 0 0 0 0 0 0 0 0 0 0 0 0 0 0 127 0" result="hardAlpha"/>
<feOffset dy="4"/>
<feGaussianBlur stdDeviation="2"/>
<feComposite in2="hardAlpha" operator="out"/>
<feColorMatrix type="matrix" values="0 0 0 0 0 0 0 0 0 0 0 0 0 0 0 0 0 0 0.25 0"/>
<feBlend mode="normal" in2="BackgroundImageFix" result="effect1_dropShadow_28_85"/>
<feBlend mode="normal" in="SourceGraphic" in2="effect1_dropShadow_28_85" result="shape"/>
</filter>
<filter id="filter1_d_28_85" x="224.856" y="40.656" width="79.376" height="99.344" filterUnits="userSpaceOnUse" color-interpolation-filters="sRGB">
<feFlood flood-opacity="0" result="BackgroundImageFix"/>
<feColorMatrix in="SourceAlpha" type="matrix" values="0 0 0 0 0 0 0 0 0 0 0 0 0 0 0 0 0 0 127 0" result="hardAlpha"/>
<feOffset dy="4"/>
<feGaussianBlur stdDeviation="2"/>
<feComposite in2="hardAlpha" operator="out"/>
<feColorMatrix type="matrix" values="0 0 0 0 0 0 0 0 0 0 0 0 0 0 0 0 0 0 0.25 0"/>
<feBlend mode="normal" in2="BackgroundImageFix" result="effect1_dropShadow_28_85"/>
<feBlend mode="normal" in="SourceGraphic" in2="effect1_dropShadow_28_85" result="shape"/>
</filter>
<filter id="filter2_d_28_85" x="147.5" y="43.5" width="78" height="96" filterUnits="userSpaceOnUse" color-interpolation-filters="sRGB">
<feFlood flood-opacity="0" result="BackgroundImageFix"/>
<feColorMatrix in="SourceAlpha" type="matrix" values="0 0 0 0 0 0 0 0 0 0 0 0 0 0 0 0 0 0 127 0" result="hardAlpha"/>
<feOffset dy="4"/>
<feGaussianBlur stdDeviation="2"/>
<feComposite in2="hardAlpha" operator="out"/>
<feColorMatrix type="matrix" values="0 0 0 0 0 0 0 0 0 0 0 0 0 0 0 0 0 0 0.25 0"/>
<feBlend mode="normal" in2="BackgroundImageFix" result="effect1_dropShadow_28_85"/>
<feBlend mode="normal" in="SourceGraphic" in2="effect1_dropShadow_28_85" result="shape"/>
</filter>
<filter id="filter3_d_28_85" x="0" y="23" width="440" height="128.5" filterUnits="userSpaceOnUse" color-interpolation-filters="sRGB">
<feFlood flood-opacity="0" result="BackgroundImageFix"/>
<feColorMatrix in="SourceAlpha" type="matrix" values="0 0 0 0 0 0 0 0 0 0 0 0 0 0 0 0 0 0 127 0" result="hardAlpha"/>
<feOffset dy="4"/>
<feGaussianBlur stdDeviation="2"/>
<feComposite in2="hardAlpha" operator="out"/>
<feColorMatrix type="matrix" values="0 0 0 0 0 0 0 0 0 0 0 0 0 0 0 0 0 0 0.25 0"/>
<feBlend mode="normal" in2="BackgroundImageFix" result="effect1_dropShadow_28_85"/>
<feBlend mode="normal" in="SourceGraphic" in2="effect1_dropShadow_28_85" result="shape"/>
</filter>
</defs>
</svg>
