<svg width="440" height="283" viewBox="0 0 440 283" fill="none" xmlns="http://www.w3.org/2000/svg">
<rect width="440" height="283" fill="#F5F5F5"/>
<g filter="url(#filter0_d_26_2)">
<path d="M358 0H139V86H358V0Z" fill="#D9D9D9" fill-opacity="0.1" shape-rendering="crispEdges"/>
</g>
<path d="M19.856 254.055V155.566H39.312V235.006H73.36V254.055H19.856Z" fill="black"/>
<path d="M73.3604 235.006H39.3115V155.566H19.8564V254.055H73.3604V235.006ZM40.3115 233.904H74.3604V255.157H18.8564V154.464H40.3115V233.904Z" fill="#0DA6D9"/>
<path d="M56.784 221.178V200.86H94.8V221.178H56.784Z" fill="black"/>
<path d="M94.7998 200.86H56.7842V221.178H94.7998V200.86ZM95.7998 222.28H55.7842V199.757H95.7998V222.28Z" fill="#0DA6D9"/>
<g filter="url(#filter1_d_26_2)">
<path d="M131.104 174.614V254.055H111.648V174.614H87.456V155.566H155.296V174.614H131.104Z" fill="black"/>
</g>
<g filter="url(#filter2_d_26_2)">
<path d="M155.296 174.614V155.566H87.4561V174.614H111.648V254.055H131.104V174.614H155.296ZM156.296 175.716H132.104V255.157H110.648V175.716H86.4561V154.464H156.296V175.716Z" fill="#0DA6D9"/>
</g>
<g filter="url(#filter3_d_26_2)">
<path d="M229.856 254.055V155.566H272.096C276.277 155.566 280.032 156.365 283.36 157.964C286.688 159.469 289.504 161.586 291.808 164.314C294.197 167.042 296.032 170.381 297.312 174.332C298.592 178.189 299.232 182.422 299.232 187.031C299.232 191.735 298.592 196.015 297.312 199.872C296.032 203.729 294.197 207.021 291.808 209.749C289.504 212.477 286.688 214.641 283.36 216.24C280.032 217.745 276.277 218.497 272.096 218.497H249.312V254.055H229.856ZM249.312 199.872H269.792C272.693 199.872 274.955 199.072 276.576 197.473C278.283 195.78 279.136 193.334 279.136 190.136V183.927C279.136 180.729 278.283 178.33 276.576 176.731C274.955 175.038 272.693 174.191 269.792 174.191H249.312V199.872Z" fill="black"/>
</g>
<g filter="url(#filter4_d_26_2)">
<path d="M299.232 187.032C299.232 182.422 298.592 178.189 297.312 174.332C296.032 170.381 294.197 167.042 291.808 164.314C289.504 161.586 286.688 159.469 283.36 157.964C280.24 156.465 276.745 155.668 272.875 155.575L272.096 155.566V154.464C276.394 154.464 280.288 155.285 283.76 156.954H283.759C287.203 158.515 290.136 160.716 292.54 163.562H292.539C295.03 166.41 296.931 169.881 298.251 173.953C299.576 177.945 300.232 182.309 300.232 187.032C300.232 191.846 299.577 196.256 298.251 200.25C296.927 204.24 295.021 207.667 292.527 210.515C290.126 213.355 287.198 215.598 283.76 217.25L283.75 217.255L283.739 217.259C280.273 218.827 276.386 219.6 272.096 219.6H250.312V255.157H228.856V154.464H272.096V155.566H229.856V254.055H249.312V218.497H272.096L272.875 218.489C276.487 218.407 279.773 217.748 282.731 216.513L283.36 216.24C286.688 214.641 289.504 212.476 291.808 209.749C294.197 207.021 296.032 203.728 297.312 199.871C298.512 196.256 299.15 192.268 299.225 187.908L299.232 187.032ZM278.136 190.135V183.927C278.136 180.95 277.349 178.903 275.929 177.571L275.908 177.552L275.889 177.531C274.504 176.085 272.517 175.293 269.792 175.293H250.312V198.769H269.792V199.871H249.312V174.191H269.792C272.693 174.191 274.955 175.038 276.576 176.732C278.283 178.331 279.136 180.729 279.136 183.927V190.135C279.136 193.334 278.283 195.78 276.576 197.473L276.265 197.764C274.67 199.169 272.512 199.871 269.792 199.871V198.769C272.531 198.769 274.525 198.017 275.909 196.652C277.351 195.22 278.136 193.108 278.136 190.135Z" fill="#0DA6D9"/>
</g>
<path d="M302.4 254.055V236.982H313.92V172.639H302.4V155.566H344.896V172.639H333.376V236.982H344.896V254.055H302.4Z" fill="black"/>
<path d="M344.896 236.981H333.376V172.639H344.896V155.566H302.4V172.639H313.92V236.981H302.4V254.055H344.896V236.981ZM345.896 173.741H334.376V235.879H345.896V255.157H301.4V235.879H312.92V173.741H301.4V154.464H345.896V173.741Z" fill="#0DA6D9"/>
<path d="M388.952 255.748C382.893 255.748 377.432 254.714 372.568 252.644C367.704 250.481 363.565 247.329 360.152 243.19C356.739 238.957 354.093 233.736 352.216 227.528C350.339 221.225 349.4 213.888 349.4 205.516C349.4 197.238 350.339 189.901 352.216 183.504C354.093 177.013 356.739 171.604 360.152 167.277C363.565 162.856 367.704 159.517 372.568 157.259C377.432 155.001 382.893 153.872 388.952 153.872C397.229 153.872 404.056 155.754 409.432 159.517C414.808 163.185 419.117 169.017 422.36 177.013L405.592 186.608C404.397 182.469 402.52 179.177 399.96 176.731C397.485 174.191 393.816 172.921 388.952 172.921C383.235 172.921 378.627 174.991 375.128 179.13C371.715 183.175 370.008 189.101 370.008 196.909V212.712C370.008 220.52 371.715 226.493 375.128 230.632C378.627 234.677 383.235 236.7 388.952 236.7C393.731 236.7 397.528 235.289 400.344 232.466C403.245 229.55 405.379 226.07 406.744 222.025L422.616 232.184C419.288 239.71 414.893 245.542 409.432 249.681C404.056 253.726 397.229 255.748 388.952 255.748Z" fill="black"/>
<path d="M370.008 212.712V196.909C370.008 189.101 371.715 183.175 375.128 179.13C378.627 174.991 383.235 172.922 388.952 172.922L389.85 172.936C394.27 173.084 397.64 174.35 399.96 176.732C402.52 179.177 404.397 182.47 405.592 186.609L422.36 177.014C419.219 169.268 415.076 163.552 409.933 159.867L409.432 159.517C404.224 155.872 397.654 153.992 389.724 153.878L388.952 153.873C382.894 153.873 377.432 155.002 372.568 157.259L371.664 157.695C367.189 159.939 363.352 163.133 360.152 167.277C356.739 171.605 354.093 177.013 352.216 183.504C350.339 189.901 349.4 197.238 349.4 205.516L349.411 207.073C349.521 214.801 350.456 221.619 352.216 227.527C354.093 233.736 356.739 238.957 360.152 243.19C363.566 247.329 367.704 250.48 372.568 252.644C377.128 254.584 382.213 255.615 387.823 255.737L388.952 255.749C396.971 255.748 403.628 253.851 408.924 250.055L409.432 249.681C414.722 245.672 419.012 240.073 422.301 232.885L422.616 232.184L406.744 222.025C405.379 226.07 403.245 229.55 400.344 232.466L400.077 232.727C397.29 235.375 393.581 236.699 388.952 236.699V235.597C393.548 235.597 397.083 234.244 399.671 231.65C402.454 228.853 404.497 225.52 405.807 221.641L406.221 220.415L423.923 231.746L423.515 232.668C420.122 240.339 415.622 246.328 409.999 250.59L409.996 250.592C404.414 254.792 397.376 256.851 388.952 256.851C382.79 256.851 377.204 255.799 372.208 253.673L372.201 253.67L372.193 253.667C367.195 251.443 362.93 248.197 359.412 243.931L359.404 243.923C355.888 239.562 353.181 234.204 351.268 227.876L351.266 227.872C349.348 221.434 348.4 213.975 348.4 205.516C348.4 197.148 349.349 189.693 351.265 183.165C353.176 176.559 355.88 171.013 359.397 166.554C362.911 162.006 367.175 158.566 372.18 156.243C377.183 153.921 382.78 152.77 388.952 152.77C397.363 152.77 404.39 154.682 409.968 158.586C415.549 162.397 419.971 168.422 423.272 176.564L423.658 177.513L404.999 188.19L404.639 186.942C403.491 182.965 401.704 179.856 399.305 177.564L399.292 177.551L399.278 177.538C397.056 175.257 393.673 174.024 388.952 174.024C383.478 174.024 379.147 175.992 375.86 179.88C372.679 183.65 371.008 189.265 371.008 196.909V212.712C371.008 220.35 372.677 226.015 375.862 229.883C379.146 233.673 383.476 235.597 388.952 235.597V236.699L388.419 236.694C382.948 236.571 378.517 234.551 375.128 230.632C371.821 226.622 370.116 220.891 370.013 213.439L370.008 212.712Z" fill="#0DA6D9"/>
<g filter="url(#filter5_d_26_2)">
<path d="M186.5 254.055C181.255 254.055 176.399 253.081 172.164 251C167.929 248.919 164.316 245.864 161.324 241.834C158.333 237.805 156.079 232.802 154.448 226.824C152.816 220.847 152 213.895 152 206.102C152 198.309 152.816 191.446 154.448 185.513C156.079 179.58 158.333 174.577 161.324 170.503C164.316 166.429 167.929 163.419 172.164 161.338C176.399 159.257 181.255 158.15 186.5 158.15C191.745 158.15 196.446 159.256 200.72 161.338C204.993 163.419 208.567 166.429 211.559 170.503C214.551 174.577 216.921 179.58 218.552 185.513C220.184 191.446 221 198.309 221 206.102C221 213.895 220.184 220.847 218.552 226.824C216.921 232.802 214.551 237.805 211.559 241.834C208.568 245.864 204.993 248.919 200.72 251C196.446 253.081 191.745 254.055 186.5 254.055ZM186.5 193.098C191.232 193.098 189.778 242.692 196.174 241.967C202.57 241.243 194.037 195.755 196.174 193.098C198.311 190.441 210.671 236.402 212.912 231.613C215.153 226.824 210.51 217.613 210.51 213.807C210.51 210 210.51 209.909 210.51 206.102C210.51 202.296 204.916 192.538 203.75 188.819C202.584 185.099 181.684 177.86 189.26 183.97C196.836 190.081 205.427 171.095 196.174 170.237C186.92 169.38 189.997 167.273 186.5 167.273C183.003 167.273 186.138 169.38 176.826 170.237C167.514 171.095 175.357 190.081 183.05 183.97C190.743 177.86 170.299 185.099 169.133 188.819C167.968 192.538 162.49 202.296 162.49 206.102C162.49 209.909 162.49 210 162.49 213.807C162.49 217.613 158.713 228.868 161.324 231.613C163.935 234.358 174.689 190.441 176.826 193.098C178.963 195.755 170.43 241.243 176.826 241.967C183.222 242.692 181.768 193.098 186.5 193.098Z" fill="black"/>
<path d="M186.5 254.055C181.255 254.055 176.399 253.081 172.164 251C167.929 248.919 164.316 245.864 161.324 241.834C158.333 237.805 156.079 232.802 154.448 226.824C152.816 220.847 152 213.895 152 206.102C152 198.309 152.816 191.446 154.448 185.513C156.079 179.58 158.333 174.577 161.324 170.503C164.316 166.429 167.929 163.419 172.164 161.338C176.399 159.257 181.255 158.15 186.5 158.15C191.745 158.15 196.446 159.256 200.72 161.338C204.993 163.419 208.567 166.429 211.559 170.503C214.551 174.577 216.921 179.58 218.552 185.513C220.184 191.446 221 198.309 221 206.102C221 213.895 220.184 220.847 218.552 226.824C216.921 232.802 214.551 237.805 211.559 241.834C208.568 245.864 204.993 248.919 200.72 251C196.446 253.081 191.745 254.055 186.5 254.055ZM186.5 193.098C191.232 193.098 189.778 242.692 196.174 241.967C202.57 241.243 194.037 195.755 196.174 193.098C198.311 190.441 210.671 236.402 212.912 231.613C215.153 226.824 210.51 217.613 210.51 213.807C210.51 210 210.51 209.909 210.51 206.102C210.51 202.296 204.916 192.538 203.75 188.819C202.584 185.099 181.684 177.86 189.26 183.97C196.836 190.081 205.427 171.095 196.174 170.237C186.92 169.38 189.997 167.273 186.5 167.273C183.003 167.273 186.138 169.38 176.826 170.237C167.514 171.095 175.357 190.081 183.05 183.97C190.743 177.86 170.299 185.099 169.133 188.819C167.968 192.538 162.49 202.296 162.49 206.102C162.49 209.909 162.49 210 162.49 213.807C162.49 217.613 158.713 228.868 161.324 231.613C163.935 234.358 174.689 190.441 176.826 193.098C178.963 195.755 170.43 241.243 176.826 241.967C183.222 242.692 181.768 193.098 186.5 193.098Z" fill="black" fill-opacity="0.2"/>
</g>
<g filter="url(#filter6_d_26_2)">
<path d="M220.5 206.102C220.5 198.35 219.689 191.543 218.074 185.673C216.459 179.8 214.117 174.861 211.171 170.849C208.229 166.843 204.718 163.888 200.518 161.842C196.31 159.793 191.679 158.701 186.5 158.701C181.319 158.701 176.532 159.794 172.367 161.841C168.203 163.887 164.654 166.845 161.713 170.849C158.771 174.856 156.543 179.792 154.926 185.673C153.311 191.543 152.5 198.35 152.5 206.102C152.5 213.855 153.312 220.75 154.927 226.665C156.544 232.591 158.77 237.525 161.711 241.486C164.654 245.45 168.205 248.451 172.367 250.496C176.525 252.54 181.31 253.504 186.5 253.504C191.687 253.504 196.318 252.541 200.518 250.496C204.716 248.452 208.228 245.451 211.172 241.486C214.116 237.52 216.458 232.583 218.073 226.665C219.688 220.75 220.5 213.855 220.5 206.102ZM176.573 192.433C176.803 192.419 176.997 192.517 177.142 192.666L177.2 192.733L177.291 192.864C177.373 193.002 177.43 193.156 177.473 193.305C177.531 193.51 177.573 193.747 177.604 194.005C177.664 194.522 177.685 195.177 177.677 195.938C177.66 197.461 177.526 199.478 177.326 201.805C176.928 206.437 176.256 212.453 175.727 218.312C175.193 224.209 174.796 230.014 174.928 234.382C174.994 236.571 175.192 238.356 175.554 239.601C175.926 240.883 176.399 241.365 176.877 241.419C177.329 241.47 177.863 241.099 178.437 239.83C178.988 238.61 179.464 236.789 179.881 234.527C180.712 230.014 181.275 223.913 181.789 217.754C182.302 211.612 182.766 205.412 183.397 200.754C183.713 198.429 184.074 196.453 184.516 195.048C184.735 194.348 184.986 193.752 185.284 193.321C185.581 192.891 185.982 192.547 186.5 192.547C187.018 192.547 187.419 192.891 187.716 193.321C188.014 193.752 188.265 194.348 188.484 195.048C188.926 196.453 189.287 198.429 189.603 200.754C190.234 205.412 190.698 211.612 191.211 217.754C191.725 223.913 192.288 230.014 193.119 234.527C193.536 236.789 194.012 238.61 194.563 239.83C195.137 241.099 195.671 241.47 196.123 241.419C196.601 241.365 197.074 240.883 197.446 239.601C197.808 238.356 198.006 236.571 198.072 234.382C198.204 230.014 197.807 224.209 197.273 218.312C196.744 212.453 196.072 206.437 195.674 201.805C195.474 199.478 195.34 197.461 195.323 195.938C195.315 195.177 195.336 194.522 195.396 194.005C195.427 193.747 195.469 193.51 195.527 193.305C195.584 193.106 195.667 192.899 195.8 192.733L195.862 192.663C196.015 192.509 196.217 192.416 196.45 192.44C196.68 192.464 196.87 192.595 197.008 192.72C197.285 192.972 197.564 193.397 197.842 193.901C198.409 194.93 199.088 196.52 199.836 198.453C201.335 202.326 203.156 207.687 204.972 212.96C206.792 218.244 208.607 223.438 210.105 227.011C210.859 228.807 211.514 230.147 212.032 230.886C212.159 231.067 212.27 231.2 212.362 231.29C212.402 231.328 212.435 231.354 212.46 231.373C212.462 231.369 212.466 231.364 212.468 231.36C212.967 230.293 213.1 228.938 212.983 227.392C212.867 225.85 212.509 224.171 212.071 222.494C211.628 220.793 211.133 219.195 210.722 217.679C210.324 216.213 210.01 214.851 210.01 213.807V206.102C210.01 205.264 209.695 204.026 209.153 202.522C208.619 201.037 207.891 199.362 207.12 197.675C206.341 195.969 205.553 194.327 204.852 192.802C204.165 191.309 203.582 189.969 203.277 188.999C203.186 188.707 202.847 188.272 202.186 187.736C201.549 187.22 200.694 186.671 199.705 186.125C198.595 185.513 197.331 184.914 196.049 184.373C195.729 184.616 195.398 184.833 195.058 185.018C193.183 186.032 191.025 186.076 188.965 184.415C188.481 184.024 188.098 183.679 187.812 183.373C187.535 183.075 187.317 182.781 187.202 182.493C187.08 182.185 187.047 181.783 187.315 181.459C187.53 181.2 187.849 181.114 188.104 181.08C188.644 181.007 189.425 181.106 190.306 181.298C191.203 181.494 192.258 181.8 193.375 182.182C194.189 182.46 195.041 182.78 195.893 183.128C196.969 182.19 197.908 180.891 198.585 179.462C199.522 177.484 199.916 175.36 199.575 173.728C199.407 172.923 199.063 172.247 198.522 171.746C197.981 171.245 197.208 170.887 196.132 170.787C191.483 170.356 189.829 169.605 188.893 168.886C188.666 168.712 188.486 168.542 188.341 168.411C188.191 168.276 188.075 168.178 187.944 168.099C187.699 167.95 187.331 167.824 186.5 167.824C185.669 167.824 185.306 167.95 185.066 168.097C184.938 168.175 184.825 168.272 184.678 168.408C184.535 168.539 184.357 168.71 184.132 168.885C183.201 169.606 181.544 170.356 176.867 170.787C175.784 170.887 174.989 171.245 174.419 171.753C173.85 172.26 173.474 172.944 173.271 173.752C172.859 175.387 173.165 177.509 174.013 179.481C174.643 180.947 175.551 182.275 176.612 183.214C177.509 182.833 178.407 182.484 179.262 182.183C180.346 181.801 181.368 181.494 182.233 181.298C183.08 181.106 183.833 181.007 184.35 181.081C184.59 181.115 184.915 181.205 185.117 181.493C185.363 181.843 185.282 182.244 185.154 182.521C185.027 182.796 184.803 183.083 184.517 183.379C184.223 183.683 183.834 184.028 183.343 184.418C181.258 186.074 179.124 186.035 177.297 185.014C177.01 184.854 176.733 184.668 176.464 184.463C175.288 184.98 174.133 185.545 173.109 186.123C172.143 186.669 171.306 187.217 170.682 187.733C170.034 188.268 169.699 188.703 169.606 188.999C169.303 189.967 168.726 191.305 168.051 192.799C167.364 194.316 166.584 195.974 165.823 197.672C165.067 199.358 164.354 201.034 163.83 202.519C163.3 204.022 162.99 205.262 162.99 206.102V213.807C162.99 214.827 162.741 216.301 162.43 217.923C162.113 219.572 161.727 221.401 161.42 223.209C161.113 225.017 160.893 226.757 160.905 228.202C160.918 229.625 161.156 230.617 161.615 231.153C161.617 231.152 161.619 231.152 161.62 231.151C161.759 231.045 161.965 230.792 162.232 230.337C162.755 229.448 163.384 228.007 164.087 226.166C165.489 222.495 167.139 217.362 168.781 212.206C170.42 207.061 172.051 201.891 173.405 198.176C174.081 196.324 174.698 194.802 175.223 193.822C175.479 193.344 175.743 192.936 176.015 192.694C176.151 192.573 176.341 192.447 176.573 192.433ZM190.111 182.379C189.242 182.189 188.596 182.125 188.225 182.174C188.212 182.176 188.2 182.179 188.188 182.181C188.25 182.278 188.351 182.411 188.51 182.581C188.75 182.839 189.093 183.152 189.556 183.525C191.283 184.919 193.039 184.882 194.617 184.028C194.698 183.984 194.778 183.935 194.858 183.887C194.256 183.652 193.658 183.433 193.079 183.235C191.984 182.861 190.964 182.565 190.111 182.379ZM184.174 182.169C183.829 182.132 183.237 182.196 182.436 182.378C181.615 182.564 180.628 182.86 179.565 183.234C178.941 183.453 178.293 183.7 177.641 183.966C177.677 183.987 177.712 184.011 177.749 184.031C179.265 184.878 180.996 184.923 182.758 183.523C183.228 183.149 183.581 182.835 183.832 182.575C183.995 182.407 184.103 182.271 184.174 182.169ZM211.01 213.807C211.01 214.667 211.277 215.883 211.68 217.364C212.068 218.795 212.595 220.513 213.032 222.189C213.475 223.889 213.856 225.65 213.98 227.3C214.104 228.946 213.978 230.539 213.356 231.866C213.261 232.071 213.121 232.274 212.912 232.4C212.687 232.535 212.447 232.54 212.23 232.466C212.03 232.398 211.852 232.264 211.7 232.117C211.545 231.966 211.392 231.776 211.241 231.561C210.647 230.714 209.951 229.27 209.197 227.472C207.681 223.858 205.853 218.625 204.036 213.351C202.215 208.064 200.405 202.732 198.916 198.885C198.17 196.957 197.514 195.43 196.987 194.473C196.777 194.09 196.603 193.833 196.471 193.678C196.44 193.796 196.411 193.951 196.388 194.148C196.336 194.589 196.315 195.186 196.323 195.925C196.339 197.4 196.47 199.379 196.67 201.7C197.071 206.367 197.732 212.268 198.269 218.203C198.802 224.1 199.205 229.97 199.071 234.418C199.004 236.636 198.804 238.544 198.399 239.936C198.006 241.29 197.345 242.389 196.225 242.516C195.078 242.645 194.257 241.625 193.668 240.321C193.056 238.967 192.56 237.032 192.14 234.747C191.296 230.165 190.728 224.003 190.215 217.855C189.7 211.689 189.241 205.536 188.614 200.918C188.301 198.605 187.949 196.712 187.539 195.408C187.333 194.753 187.125 194.284 186.921 193.989C186.716 193.693 186.574 193.649 186.5 193.649C186.426 193.649 186.284 193.693 186.079 193.989C185.875 194.284 185.667 194.753 185.461 195.408C185.051 196.712 184.699 198.605 184.386 200.918C183.759 205.536 183.3 211.689 182.785 217.855C182.272 224.003 181.704 230.165 180.86 234.747C180.44 237.032 179.944 238.967 179.332 240.321C178.743 241.625 177.922 242.645 176.775 242.516C175.655 242.389 174.994 241.29 174.601 239.936C174.196 238.544 173.996 236.636 173.929 234.418C173.795 229.97 174.198 224.1 174.731 218.203C175.268 212.268 175.929 206.367 176.33 201.7C176.53 199.379 176.661 197.4 176.677 195.925C176.685 195.186 176.664 194.589 176.612 194.148C176.589 193.95 176.558 193.795 176.527 193.676C176.413 193.818 176.264 194.047 176.084 194.383C175.601 195.286 175.007 196.739 174.333 198.587C172.989 202.273 171.368 207.413 169.725 212.571C168.085 217.719 166.424 222.885 165.008 226.593C164.302 228.441 163.646 229.96 163.072 230.937C162.791 231.415 162.497 231.822 162.19 232.056C162.033 232.177 161.834 232.282 161.604 232.288C161.358 232.294 161.144 232.185 160.979 232.012C160.169 231.16 159.919 229.736 159.905 228.213C159.892 226.657 160.126 224.832 160.437 223.007C160.747 221.183 161.141 219.312 161.451 217.694C161.767 216.05 161.99 214.691 161.99 213.807V206.102C161.99 205.039 162.365 203.632 162.898 202.119C163.438 200.588 164.168 198.877 164.927 197.183C165.681 195.501 166.488 193.784 167.156 192.307C167.835 190.806 168.382 189.53 168.661 188.639C168.86 188.005 169.419 187.399 170.082 186.851C170.769 186.283 171.66 185.703 172.653 185.142C173.553 184.635 174.547 184.138 175.566 183.675C174.551 182.654 173.708 181.345 173.109 179.952C172.199 177.834 171.81 175.431 172.307 173.457C172.557 172.46 173.036 171.567 173.79 170.896C174.543 170.225 175.54 169.802 176.784 169.688C181.419 169.261 182.851 168.529 183.556 167.983C183.739 167.84 183.88 167.707 184.038 167.562C184.192 167.421 184.364 167.266 184.579 167.134C185.027 166.859 185.583 166.722 186.5 166.722C187.418 166.722 187.976 166.859 188.427 167.132C188.644 167.264 188.818 167.417 188.975 167.558C189.136 167.704 189.278 167.839 189.464 167.982C190.177 168.53 191.612 169.261 196.216 169.688C197.453 169.802 198.436 170.225 199.166 170.902C199.897 171.58 200.341 172.48 200.55 173.48C200.963 175.458 200.473 177.859 199.472 179.972C198.836 181.314 197.973 182.578 196.959 183.579C198.078 184.069 199.171 184.599 200.152 185.14C201.168 185.701 202.078 186.28 202.778 186.848C203.453 187.395 204.023 188.001 204.223 188.639C204.501 189.528 205.054 190.802 205.744 192.303C206.419 193.772 207.249 195.506 208.014 197.18C208.787 198.874 209.532 200.584 210.083 202.116C210.627 203.628 211.01 205.037 211.01 206.102V213.807ZM221.5 206.102C221.5 213.936 220.68 220.942 219.031 226.983C217.383 233.02 214.985 238.091 211.946 242.183C208.907 246.276 205.271 249.386 200.922 251.504C196.574 253.621 191.802 254.606 186.5 254.606C181.2 254.606 176.272 253.623 171.96 251.504C167.652 249.387 163.978 246.278 160.938 242.183C157.895 238.085 155.615 233.012 153.969 226.983C152.32 220.942 151.5 213.936 151.5 206.102C151.5 198.269 152.32 191.35 153.969 185.353C155.615 179.368 157.895 174.297 160.936 170.156C163.978 166.014 167.655 162.95 171.96 160.834C176.265 158.719 181.191 157.598 186.5 157.598C191.811 157.598 196.581 158.72 200.922 160.833C205.269 162.95 208.906 166.015 211.947 170.156C214.984 174.291 217.383 179.36 219.031 185.353C220.68 191.35 221.5 198.269 221.5 206.102Z" fill="#0DA6D9"/>
</g>
<g filter="url(#filter7_d_26_2)">
<path d="M432 138.784H8V271.216H432V138.784ZM436 275H4V135H436V275Z" fill="black"/>
</g>
<defs>
<filter id="filter0_d_26_2" x="135" y="0" width="227" height="94" filterUnits="userSpaceOnUse" color-interpolation-filters="sRGB">
<feFlood flood-opacity="0" result="BackgroundImageFix"/>
<feColorMatrix in="SourceAlpha" type="matrix" values="0 0 0 0 0 0 0 0 0 0 0 0 0 0 0 0 0 0 127 0" result="hardAlpha"/>
<feOffset dy="4"/>
<feGaussianBlur stdDeviation="2"/>
<feComposite in2="hardAlpha" operator="out"/>
<feColorMatrix type="matrix" values="0 0 0 0 0 0 0 0 0 0 0 0 0 0 0 0 0 0 0.25 0"/>
<feBlend mode="normal" in2="BackgroundImageFix" result="effect1_dropShadow_26_2"/>
<feBlend mode="normal" in="SourceGraphic" in2="effect1_dropShadow_26_2" result="shape"/>
</filter>
<filter id="filter1_d_26_2" x="83.456" y="155.566" width="75.84" height="106.489" filterUnits="userSpaceOnUse" color-interpolation-filters="sRGB">
<feFlood flood-opacity="0" result="BackgroundImageFix"/>
<feColorMatrix in="SourceAlpha" type="matrix" values="0 0 0 0 0 0 0 0 0 0 0 0 0 0 0 0 0 0 127 0" result="hardAlpha"/>
<feOffset dy="4"/>
<feGaussianBlur stdDeviation="2"/>
<feComposite in2="hardAlpha" operator="out"/>
<feColorMatrix type="matrix" values="0 0 0 0 0 0 0 0 0 0 0 0 0 0 0 0 0 0 0.25 0"/>
<feBlend mode="normal" in2="BackgroundImageFix" result="effect1_dropShadow_26_2"/>
<feBlend mode="normal" in="SourceGraphic" in2="effect1_dropShadow_26_2" result="shape"/>
</filter>
<filter id="filter2_d_26_2" x="82.4561" y="154.464" width="77.8398" height="108.694" filterUnits="userSpaceOnUse" color-interpolation-filters="sRGB">
<feFlood flood-opacity="0" result="BackgroundImageFix"/>
<feColorMatrix in="SourceAlpha" type="matrix" values="0 0 0 0 0 0 0 0 0 0 0 0 0 0 0 0 0 0 127 0" result="hardAlpha"/>
<feOffset dy="4"/>
<feGaussianBlur stdDeviation="2"/>
<feComposite in2="hardAlpha" operator="out"/>
<feColorMatrix type="matrix" values="0 0 0 0 0 0 0 0 0 0 0 0 0 0 0 0 0 0 0.25 0"/>
<feBlend mode="normal" in2="BackgroundImageFix" result="effect1_dropShadow_26_2"/>
<feBlend mode="normal" in="SourceGraphic" in2="effect1_dropShadow_26_2" result="shape"/>
</filter>
<filter id="filter3_d_26_2" x="225.856" y="155.566" width="77.376" height="106.489" filterUnits="userSpaceOnUse" color-interpolation-filters="sRGB">
<feFlood flood-opacity="0" result="BackgroundImageFix"/>
<feColorMatrix in="SourceAlpha" type="matrix" values="0 0 0 0 0 0 0 0 0 0 0 0 0 0 0 0 0 0 127 0" result="hardAlpha"/>
<feOffset dy="4"/>
<feGaussianBlur stdDeviation="2"/>
<feComposite in2="hardAlpha" operator="out"/>
<feColorMatrix type="matrix" values="0 0 0 0 0 0 0 0 0 0 0 0 0 0 0 0 0 0 0.25 0"/>
<feBlend mode="normal" in2="BackgroundImageFix" result="effect1_dropShadow_26_2"/>
<feBlend mode="normal" in="SourceGraphic" in2="effect1_dropShadow_26_2" result="shape"/>
</filter>
<filter id="filter4_d_26_2" x="224.856" y="154.464" width="79.376" height="108.694" filterUnits="userSpaceOnUse" color-interpolation-filters="sRGB">
<feFlood flood-opacity="0" result="BackgroundImageFix"/>
<feColorMatrix in="SourceAlpha" type="matrix" values="0 0 0 0 0 0 0 0 0 0 0 0 0 0 0 0 0 0 127 0" result="hardAlpha"/>
<feOffset dy="4"/>
<feGaussianBlur stdDeviation="2"/>
<feComposite in2="hardAlpha" operator="out"/>
<feColorMatrix type="matrix" values="0 0 0 0 0 0 0 0 0 0 0 0 0 0 0 0 0 0 0.25 0"/>
<feBlend mode="normal" in2="BackgroundImageFix" result="effect1_dropShadow_26_2"/>
<feBlend mode="normal" in="SourceGraphic" in2="effect1_dropShadow_26_2" result="shape"/>
</filter>
<filter id="filter5_d_26_2" x="148" y="158.15" width="77" height="103.906" filterUnits="userSpaceOnUse" color-interpolation-filters="sRGB">
<feFlood flood-opacity="0" result="BackgroundImageFix"/>
<feColorMatrix in="SourceAlpha" type="matrix" values="0 0 0 0 0 0 0 0 0 0 0 0 0 0 0 0 0 0 127 0" result="hardAlpha"/>
<feOffset dy="4"/>
<feGaussianBlur stdDeviation="2"/>
<feComposite in2="hardAlpha" operator="out"/>
<feColorMatrix type="matrix" values="0 0 0 0 0 0 0 0 0 0 0 0 0 0 0 0 0 0 0.25 0"/>
<feBlend mode="normal" in2="BackgroundImageFix" result="effect1_dropShadow_26_2"/>
<feBlend mode="normal" in="SourceGraphic" in2="effect1_dropShadow_26_2" result="shape"/>
</filter>
<filter id="filter6_d_26_2" x="147.5" y="157.598" width="78" height="105.008" filterUnits="userSpaceOnUse" color-interpolation-filters="sRGB">
<feFlood flood-opacity="0" result="BackgroundImageFix"/>
<feColorMatrix in="SourceAlpha" type="matrix" values="0 0 0 0 0 0 0 0 0 0 0 0 0 0 0 0 0 0 127 0" result="hardAlpha"/>
<feOffset dy="4"/>
<feGaussianBlur stdDeviation="2"/>
<feComposite in2="hardAlpha" operator="out"/>
<feColorMatrix type="matrix" values="0 0 0 0 0 0 0 0 0 0 0 0 0 0 0 0 0 0 0.25 0"/>
<feBlend mode="normal" in2="BackgroundImageFix" result="effect1_dropShadow_26_2"/>
<feBlend mode="normal" in="SourceGraphic" in2="effect1_dropShadow_26_2" result="shape"/>
</filter>
<filter id="filter7_d_26_2" x="0" y="135" width="440" height="148" filterUnits="userSpaceOnUse" color-interpolation-filters="sRGB">
<feFlood flood-opacity="0" result="BackgroundImageFix"/>
<feColorMatrix in="SourceAlpha" type="matrix" values="0 0 0 0 0 0 0 0 0 0 0 0 0 0 0 0 0 0 127 0" result="hardAlpha"/>
<feOffset dy="4"/>
<feGaussianBlur stdDeviation="2"/>
<feComposite in2="hardAlpha" operator="out"/>
<feColorMatrix type="matrix" values="0 0 0 0 0 0 0 0 0 0 0 0 0 0 0 0 0 0 0.25 0"/>
<feBlend mode="normal" in2="BackgroundImageFix" result="effect1_dropShadow_26_2"/>
<feBlend mode="normal" in="SourceGraphic" in2="effect1_dropShadow_26_2" result="shape"/>
</filter>
</defs>
</svg>
