<svg width="333" height="99" viewBox="0 0 333 99" fill="none" xmlns="http://www.w3.org/2000/svg">
<g filter="url(#filter0_d_17_3)">
<path d="M292.351 76.9032C282.777 76.9032 275.326 74.2895 269.999 69.0621C264.672 63.7766 264 56.2064 264 45.9839C264 35.7614 264.672 27.7365 269.999 22.2767C275.326 16.7589 282.777 14 292.351 14C298.685 14 303.753 16.1606 308 18.4839C314.258 23.2757 313 26.1491 313 30.4839H306C304.488 27.3474 307.108 25.268 304.012 23.4093C300.917 21.4926 297.03 20.5343 292.351 20.5343C289.111 20.5343 286.196 21.028 283.605 22.0154C281.085 23.0028 278.926 24.4258 277.126 26.2844C275.398 28.085 274.067 30.2631 273.131 32.8187C272.195 35.3162 271.727 38.1332 271.727 41.2697V50.3305C271.727 56.6034 273.527 61.5114 277.126 65.0544C280.725 68.5974 285.8 70.369 292.351 70.369C297.174 70.369 300.773 68.4587 304.012 66.4839C305.5 63.9839 304.488 63.2946 306 59.9839L313 60.1218C313 63.9839 313 64.8073 310 70.1218C308.589 72.6218 298.685 76.9032 292.351 76.9032Z" fill="white"/>
<path d="M313.5 60.1221C313.5 62.0403 313.503 63.2813 313.106 64.7109C312.713 66.1296 311.934 67.7124 310.436 70.3672C310.218 70.7529 309.859 71.1383 309.421 71.5117C308.977 71.8895 308.427 72.2767 307.8 72.6621C306.544 73.4332 304.949 74.2149 303.208 74.9141C299.735 76.3083 295.608 77.4033 292.351 77.4033C282.684 77.4033 275.094 74.7619 269.649 69.4189L269.647 69.417C264.154 63.9663 263.5 56.1823 263.5 45.9844C263.5 35.7881 264.154 27.5525 269.642 21.9277C275.085 16.2905 282.678 13.5 292.351 13.5C298.402 13.5 303.31 15.4371 307.427 17.6084L308.24 18.0449L308.273 18.0635L308.304 18.0869C311.483 20.5214 312.827 22.5248 313.332 24.5332C313.582 25.5258 313.619 26.4927 313.599 27.4648C313.577 28.4728 313.5 29.3913 313.5 30.4844V30.9844H305.686L305.55 30.7012C304.722 28.9841 305.027 27.513 305.102 26.4326C305.14 25.8797 305.121 25.4458 304.955 25.0527C304.794 24.6706 304.465 24.2642 303.755 23.8379L303.749 23.835L304.013 23.4092L303.749 23.834C300.752 21.9785 296.963 21.0342 292.351 21.0342C289.162 21.0342 286.308 21.52 283.782 22.4824C281.329 23.4446 279.232 24.8269 277.485 26.6299L277.486 26.6309C275.811 28.3769 274.515 30.494 273.601 32.9902L273.599 32.9941C272.687 35.4266 272.227 38.1828 272.227 41.2695V50.3301C272.227 56.5034 273.995 61.2709 277.477 64.6982C280.957 68.1241 285.891 69.8691 292.351 69.8691C296.977 69.8691 300.45 68.0621 303.642 66.123C304.281 65.0165 304.388 64.3137 304.502 63.4707C304.627 62.5529 304.759 61.4968 305.545 59.7764L305.682 59.4775L306.01 59.4844L313.01 59.6221L313.5 59.6318V60.1221Z" stroke="#AEAEB2"/>
</g>
<g filter="url(#filter1_d_17_3)">
<path d="M231 76.9011L231 70.5929H241.767V20.3081H231L231 14H261.764V20.3081H250.997V70.5929H261.764V76.9011H231Z" fill="white"/>
<path d="M262.265 13.5V20.8086H251.497V70.0928H262.265V77.4014H230.5V70.0928H241.268V20.8086H230.5V13.5H262.265Z" stroke="#AEAEB2"/>
</g>
<g filter="url(#filter2_d_17_3)">
<path d="M186.599 76.4193V13.5161H211.272C216.833 13.5161 221.093 15.1383 224.051 18.3825C227.069 21.5668 228.578 25.9526 228.578 31.54C228.578 37.1273 227.069 41.5432 224.051 44.7875C221.093 47.9717 216.833 49.5638 211.272 49.5638H194.054V76.4193H186.599ZM194.054 42.895H211.272C214.23 42.895 216.508 42.1139 218.105 40.5519C219.762 38.9898 220.59 36.7232 220.59 33.8394V29.1969C220.59 26.313 219.762 24.0901 218.105 22.528C216.508 20.966 214.23 20.1849 211.272 20.1849H194.054V42.895Z" fill="white"/>
<path d="M211.271 13.0161C216.929 13.0161 221.337 14.6691 224.414 18.0386C227.541 21.339 229.078 25.8608 229.078 31.5396C229.078 37.2189 227.542 41.7692 224.418 45.1284L224.417 45.1274C221.339 48.44 216.93 50.064 211.271 50.064H194.554V76.9194H186.099V13.0161H211.271ZM194.554 42.395H211.271C214.142 42.395 216.279 41.6388 217.756 40.1948L218.041 39.9097C219.389 38.4782 220.09 36.4527 220.09 33.8394V29.1968C220.09 26.586 219.39 24.5984 218.041 23.1704L217.756 22.8853C216.279 21.4412 214.142 20.6851 211.271 20.6851H194.554V42.395Z" stroke="#AEAEB2"/>
</g>
<g filter="url(#filter3_i_17_3)">
<path d="M154.563 76.4193C150.365 76.4193 146.477 75.7805 143.087 74.4155C139.697 73.0505 136.805 71.0469 134.41 68.404C132.015 65.761 130.211 62.4796 128.905 58.559C127.599 54.6384 126.946 50.079 126.946 44.9677C126.946 39.8565 127.599 35.3551 128.905 31.4636C130.211 27.5721 132.015 24.2905 134.41 21.6186C136.805 18.9468 139.697 16.972 143.087 15.6071C146.477 14.2421 150.365 13.5161 154.563 13.5161C158.762 13.5161 162.525 14.2421 165.946 15.6071C169.367 16.9721 172.228 18.9468 174.623 21.6186C177.018 24.2905 178.915 27.5721 180.221 31.4636C181.527 35.3551 182.181 39.8565 182.181 44.9677C182.181 50.079 181.527 54.6384 180.221 58.559C178.915 62.4796 177.018 65.7612 174.623 68.404C172.228 71.0467 169.367 73.0505 165.946 74.4155C162.525 75.7805 158.762 76.4193 154.563 76.4193ZM154.563 36.4384C158.351 36.4384 157.187 68.9662 162.307 68.4911C167.427 68.016 160.597 38.181 162.307 36.4384C164.018 34.6959 173.912 64.8406 175.706 61.6998C177.5 58.559 173.783 52.5177 173.783 50.0209C173.783 47.5241 173.783 47.4646 173.783 44.9677C173.783 42.4709 169.305 36.0711 168.372 33.6316C167.439 31.1922 150.708 26.4439 156.773 30.4516C162.837 34.4593 169.715 22.0067 162.307 21.4444C154.9 20.882 157.362 19.5 154.563 19.5C151.764 19.5 154.273 20.882 146.819 21.4444C139.365 22.0067 145.644 34.4593 151.801 30.4516C157.959 26.4439 141.594 31.1922 140.661 33.6316C139.728 36.0711 135.343 42.4709 135.343 44.9677C135.343 47.4646 135.343 47.5241 135.343 50.0209C135.343 52.5177 132.32 59.8996 134.41 61.6998C136.5 63.5 145.109 34.6959 146.819 36.4384C148.53 38.181 141.699 68.016 146.819 68.4911C151.939 68.9662 150.775 36.4384 154.563 36.4384Z" fill="white"/>
</g>
<path d="M154.563 14.0161C158.702 14.0161 162.402 14.7319 165.76 16.0718C169.113 17.4093 171.909 19.3404 174.251 21.9526C176.596 24.5696 178.461 27.79 179.748 31.6226C181.033 35.4519 181.68 39.8976 181.68 44.9673C181.68 50.0375 181.032 54.5421 179.747 58.4009C178.46 62.2622 176.596 65.4815 174.252 68.0679C171.909 70.6542 169.111 72.6139 165.76 73.9507C162.408 75.288 158.71 75.9194 154.563 75.9194C150.413 75.9194 146.592 75.2877 143.274 73.9517C139.952 72.6142 137.124 70.6534 134.781 68.0679C132.442 65.4863 130.668 62.2698 129.379 58.4009C128.094 54.5421 127.446 50.0375 127.446 44.9673C127.446 39.8976 128.094 35.4519 129.379 31.6226C130.668 27.7826 132.442 24.5644 134.783 21.9526C137.123 19.3414 139.95 17.409 143.274 16.0708C146.598 14.7323 150.422 14.0161 154.563 14.0161ZM154.563 19.0005C153.826 19.0005 153.369 19.0898 152.996 19.2778C152.816 19.3684 152.672 19.4744 152.547 19.5679C152.419 19.6643 152.311 19.7488 152.169 19.8394C151.623 20.1858 150.492 20.6659 146.782 20.9458C145.779 21.0214 144.967 21.3006 144.346 21.7534C143.722 22.2087 143.32 22.819 143.109 23.5054C142.693 24.859 143.023 26.4839 143.763 27.894C144.211 28.7482 144.827 29.5546 145.564 30.2075C144.825 30.4877 144.107 30.7852 143.452 31.0884C142.655 31.4569 141.935 31.8397 141.379 32.2163C141.102 32.4046 140.854 32.598 140.656 32.7944C140.462 32.9866 140.288 33.2067 140.194 33.4526C139.975 34.0249 139.543 34.8532 138.999 35.8394C138.467 36.8025 137.816 37.9378 137.213 39.0386C136.605 40.1504 136.019 41.2772 135.584 42.2886C135.157 43.2806 134.843 44.2315 134.843 44.9673V50.021C134.843 50.577 134.67 51.4485 134.417 52.5317C134.169 53.5874 133.852 54.8212 133.603 56.02C133.354 57.2195 133.163 58.4323 133.174 59.4722C133.185 60.4868 133.389 61.4802 134.084 62.0786C134.235 62.2089 134.425 62.2852 134.635 62.2808C134.832 62.2766 135.004 62.203 135.14 62.1177C135.404 61.9525 135.651 61.6699 135.879 61.3511C136.347 60.6988 136.877 59.6917 137.443 58.478C138.579 56.0403 139.911 52.6468 141.223 49.272C142.539 45.8868 143.836 42.5203 144.91 40.1069C145.449 38.8957 145.92 37.9518 146.299 37.3706C146.388 37.2345 146.465 37.128 146.531 37.0474C146.537 37.0794 146.545 37.1142 146.55 37.1519C146.59 37.4287 146.607 37.8089 146.6 38.2896C146.587 39.2489 146.483 40.5407 146.324 42.063C146.002 45.1299 145.475 48.9796 145.044 52.8853C144.617 56.7533 144.292 60.614 144.4 63.5454C144.454 65.0059 144.615 66.2789 144.948 67.2163C145.275 68.138 145.834 68.9016 146.773 68.9888C147.729 69.0775 148.418 68.3743 148.905 67.4917C149.405 66.5842 149.806 65.2959 150.144 63.7925C150.822 60.7758 151.277 56.7247 151.688 52.6938C152.1 48.6456 152.468 44.6172 152.968 41.5952C153.219 40.081 153.498 38.8534 153.82 38.0142C153.982 37.5926 154.142 37.302 154.291 37.1255C154.436 36.9527 154.526 36.938 154.563 36.938C154.6 36.938 154.69 36.9526 154.835 37.1255C154.984 37.302 155.145 37.5927 155.306 38.0142C155.628 38.8534 155.907 40.081 156.158 41.5952C156.658 44.6172 157.026 48.6456 157.438 52.6938C157.849 56.7247 158.304 60.7758 158.982 63.7925C159.32 65.2961 159.722 66.5842 160.222 67.4917C160.709 68.3741 161.397 69.0773 162.353 68.9888C163.292 68.9016 163.851 68.138 164.178 67.2163C164.511 66.2789 164.672 65.0059 164.726 63.5454C164.834 60.614 164.51 56.7533 164.083 52.8853C163.651 48.9796 163.125 45.1299 162.803 42.063C162.644 40.5407 162.539 39.2489 162.526 38.2896C162.52 37.8088 162.537 37.4287 162.577 37.1519C162.582 37.1127 162.589 37.0765 162.595 37.0435C162.675 37.1367 162.773 37.2635 162.885 37.4312C163.3 38.0489 163.822 39.0415 164.419 40.3052C165.609 42.8245 167.056 46.3181 168.514 49.7876C169.968 53.2458 171.434 56.683 172.651 59.0601C173.255 60.2397 173.818 61.2007 174.305 61.77C174.536 62.0398 174.819 62.3051 175.144 62.396C175.328 62.4474 175.536 62.4449 175.735 62.3472C175.924 62.2542 176.053 62.1009 176.14 61.9478C176.66 61.0377 176.762 59.9535 176.661 58.855C176.56 57.7538 176.25 56.5856 175.894 55.4673C175.545 54.3717 175.118 53.2257 174.811 52.3003C174.488 51.3256 174.284 50.553 174.284 50.021V44.9673C174.284 44.2292 173.962 43.2763 173.527 42.2847C173.083 41.2731 172.484 40.1463 171.864 39.0347C171.254 37.9415 170.583 36.7918 170.047 35.8364C169.494 34.8502 169.057 34.0231 168.838 33.4526C168.743 33.2045 168.567 32.9834 168.37 32.7915C168.168 32.5951 167.916 32.4015 167.633 32.2134C167.067 31.8371 166.334 31.4547 165.519 31.0864C164.799 30.7607 164.003 30.4432 163.186 30.145C163.922 29.5082 164.55 28.7322 165.025 27.9116C165.837 26.5083 166.251 24.8866 165.905 23.5288C165.729 22.8383 165.355 22.2204 164.748 21.7593C164.144 21.3012 163.342 21.0215 162.345 20.9458C158.66 20.666 157.526 20.1864 156.973 19.8384C156.828 19.7472 156.719 19.6616 156.588 19.5649C156.462 19.4713 156.315 19.3668 156.134 19.2769C155.759 19.0903 155.301 19.0005 154.563 19.0005ZM152.378 29.4185C152.182 29.5848 151.904 29.7887 151.529 30.0327C150.243 30.8695 148.975 30.9042 147.844 30.4673C148.246 30.3375 148.643 30.2153 149.029 30.104C149.878 29.8593 150.666 29.667 151.32 29.5454C151.762 29.4632 152.122 29.4192 152.39 29.4067C152.386 29.4103 152.383 29.4149 152.378 29.4185ZM156.199 29.4019C156.497 29.4051 156.918 29.4512 157.444 29.5454C158.124 29.6672 158.938 29.8602 159.813 30.105C160.161 30.2025 160.518 30.3096 160.878 30.4214C159.674 30.9079 158.349 30.8939 157.048 30.0347C156.68 29.7911 156.41 29.5885 156.223 29.4243C156.215 29.4168 156.207 29.4091 156.199 29.4019Z" stroke="#AEAEB2"/>
<g filter="url(#filter4_d_17_3)">
<path d="M106.621 19.6686V75.9011H97.3916V19.6686H73V13H131.012L131.012 19.6686H106.621Z" fill="white"/>
<path d="M131.513 12.5V20.1689H107.121V76.4014H96.8916V20.1689H72.5V12.5H131.513Z" stroke="#AEAEB2"/>
</g>
<mask id="path-11-outside-1_17_3" maskUnits="userSpaceOnUse" x="55" y="45" width="20" height="9" fill="black">
<rect fill="white" x="55" y="45" width="20" height="9"/>
<path d="M56.416 52.296V46.792H73.12V52.296H56.416Z"/>
</mask>
<path d="M56.416 52.296V46.792H73.12V52.296H56.416Z" fill="white"/>
<path d="M56.416 52.296H55.416V53.296H56.416V52.296ZM56.416 46.792V45.792H55.416V46.792H56.416ZM73.12 46.792H74.12V45.792H73.12V46.792ZM73.12 52.296V53.296H74.12V52.296H73.12ZM56.416 52.296H57.416V46.792H56.416H55.416V52.296H56.416ZM56.416 46.792V47.792H73.12V46.792V45.792H56.416V46.792ZM73.12 46.792H72.12V52.296H73.12H74.12V46.792H73.12ZM73.12 52.296V51.296H56.416V52.296V53.296H73.12V52.296Z" fill="black" fill-opacity="0.27" mask="url(#path-11-outside-1_17_3)"/>
<g filter="url(#filter5_d_17_3)">
<path d="M24 75.9032V13H33.419V44.9355V69.7829H63.769V75.9032H24Z" fill="white"/>
<path d="M33.9189 12.5V69.2832H64.2686V76.4033H23.5V12.5H33.9189Z" stroke="#AEAEB2"/>
</g>
<g filter="url(#filter6_d_17_3)">
<path d="M329 0V91H4V0H329ZM9.86643 86.1075H323.134V4.89247H9.86643V86.1075Z" fill="white"/>
<path d="M7.36621 2.5V88.5H6.5V2.5H7.36621ZM325.634 2.5H326.5V88.5H325.634V2.5Z" stroke="#787878" stroke-opacity="0.2" stroke-width="5"/>
</g>
<defs>
<filter id="filter0_d_17_3" x="259" y="13" width="59.1035" height="72.9032" filterUnits="userSpaceOnUse" color-interpolation-filters="sRGB">
<feFlood flood-opacity="0" result="BackgroundImageFix"/>
<feColorMatrix in="SourceAlpha" type="matrix" values="0 0 0 0 0 0 0 0 0 0 0 0 0 0 0 0 0 0 127 0" result="hardAlpha"/>
<feOffset dy="4"/>
<feGaussianBlur stdDeviation="2"/>
<feComposite in2="hardAlpha" operator="out"/>
<feColorMatrix type="matrix" values="0 0 0 0 0 0 0 0 0 0 0 0 0 0 0 0 0 0 0.25 0"/>
<feBlend mode="normal" in2="BackgroundImageFix" result="effect1_dropShadow_17_3"/>
<feBlend mode="normal" in="SourceGraphic" in2="effect1_dropShadow_17_3" result="shape"/>
</filter>
<filter id="filter1_d_17_3" x="226" y="13" width="40.7642" height="72.9011" filterUnits="userSpaceOnUse" color-interpolation-filters="sRGB">
<feFlood flood-opacity="0" result="BackgroundImageFix"/>
<feColorMatrix in="SourceAlpha" type="matrix" values="0 0 0 0 0 0 0 0 0 0 0 0 0 0 0 0 0 0 127 0" result="hardAlpha"/>
<feOffset dy="4"/>
<feGaussianBlur stdDeviation="2"/>
<feComposite in2="hardAlpha" operator="out"/>
<feColorMatrix type="matrix" values="0 0 0 0 0 0 0 0 0 0 0 0 0 0 0 0 0 0 0.25 0"/>
<feBlend mode="normal" in2="BackgroundImageFix" result="effect1_dropShadow_17_3"/>
<feBlend mode="normal" in="SourceGraphic" in2="effect1_dropShadow_17_3" result="shape"/>
</filter>
<filter id="filter2_d_17_3" x="181.599" y="12.5161" width="51.9783" height="72.9032" filterUnits="userSpaceOnUse" color-interpolation-filters="sRGB">
<feFlood flood-opacity="0" result="BackgroundImageFix"/>
<feColorMatrix in="SourceAlpha" type="matrix" values="0 0 0 0 0 0 0 0 0 0 0 0 0 0 0 0 0 0 127 0" result="hardAlpha"/>
<feOffset dy="4"/>
<feGaussianBlur stdDeviation="2"/>
<feComposite in2="hardAlpha" operator="out"/>
<feColorMatrix type="matrix" values="0 0 0 0 0 0 0 0 0 0 0 0 0 0 0 0 0 0 0.25 0"/>
<feBlend mode="normal" in2="BackgroundImageFix" result="effect1_dropShadow_17_3"/>
<feBlend mode="normal" in="SourceGraphic" in2="effect1_dropShadow_17_3" result="shape"/>
</filter>
<filter id="filter3_i_17_3" x="126.946" y="13.5161" width="55.2347" height="66.9032" filterUnits="userSpaceOnUse" color-interpolation-filters="sRGB">
<feFlood flood-opacity="0" result="BackgroundImageFix"/>
<feBlend mode="normal" in="SourceGraphic" in2="BackgroundImageFix" result="shape"/>
<feColorMatrix in="SourceAlpha" type="matrix" values="0 0 0 0 0 0 0 0 0 0 0 0 0 0 0 0 0 0 127 0" result="hardAlpha"/>
<feOffset dy="4"/>
<feGaussianBlur stdDeviation="2"/>
<feComposite in2="hardAlpha" operator="arithmetic" k2="-1" k3="1"/>
<feColorMatrix type="matrix" values="0 0 0 0 0 0 0 0 0 0 0 0 0 0 0 0 0 0 0.25 0"/>
<feBlend mode="normal" in2="shape" result="effect1_innerShadow_17_3"/>
</filter>
<filter id="filter4_d_17_3" x="68" y="12" width="68.0124" height="72.9011" filterUnits="userSpaceOnUse" color-interpolation-filters="sRGB">
<feFlood flood-opacity="0" result="BackgroundImageFix"/>
<feColorMatrix in="SourceAlpha" type="matrix" values="0 0 0 0 0 0 0 0 0 0 0 0 0 0 0 0 0 0 127 0" result="hardAlpha"/>
<feOffset dy="4"/>
<feGaussianBlur stdDeviation="2"/>
<feComposite in2="hardAlpha" operator="out"/>
<feColorMatrix type="matrix" values="0 0 0 0 0 0 0 0 0 0 0 0 0 0 0 0 0 0 0.25 0"/>
<feBlend mode="normal" in2="BackgroundImageFix" result="effect1_dropShadow_17_3"/>
<feBlend mode="normal" in="SourceGraphic" in2="effect1_dropShadow_17_3" result="shape"/>
</filter>
<filter id="filter5_d_17_3" x="19" y="12" width="49.769" height="72.9032" filterUnits="userSpaceOnUse" color-interpolation-filters="sRGB">
<feFlood flood-opacity="0" result="BackgroundImageFix"/>
<feColorMatrix in="SourceAlpha" type="matrix" values="0 0 0 0 0 0 0 0 0 0 0 0 0 0 0 0 0 0 127 0" result="hardAlpha"/>
<feOffset dy="4"/>
<feGaussianBlur stdDeviation="2"/>
<feComposite in2="hardAlpha" operator="out"/>
<feColorMatrix type="matrix" values="0 0 0 0 0 0 0 0 0 0 0 0 0 0 0 0 0 0 0.25 0"/>
<feBlend mode="normal" in2="BackgroundImageFix" result="effect1_dropShadow_17_3"/>
<feBlend mode="normal" in="SourceGraphic" in2="effect1_dropShadow_17_3" result="shape"/>
</filter>
<filter id="filter6_d_17_3" x="0" y="0" width="333" height="99" filterUnits="userSpaceOnUse" color-interpolation-filters="sRGB">
<feFlood flood-opacity="0" result="BackgroundImageFix"/>
<feColorMatrix in="SourceAlpha" type="matrix" values="0 0 0 0 0 0 0 0 0 0 0 0 0 0 0 0 0 0 127 0" result="hardAlpha"/>
<feOffset dy="4"/>
<feGaussianBlur stdDeviation="2"/>
<feComposite in2="hardAlpha" operator="out"/>
<feColorMatrix type="matrix" values="0 0 0 0 0 0 0 0 0 0 0 0 0 0 0 0 0 0 0.25 0"/>
<feBlend mode="normal" in2="BackgroundImageFix" result="effect1_dropShadow_17_3"/>
<feBlend mode="normal" in="SourceGraphic" in2="effect1_dropShadow_17_3" result="shape"/>
</filter>
</defs>
</svg>
