<svg width="285" height="101" viewBox="0 0 285 101" fill="none" xmlns="http://www.w3.org/2000/svg">
<g filter="url(#filter0_d_8_81)">
<path d="M246.466 80C237.8 80 231.055 77.2992 226.233 71.8975C221.411 66.4358 219 58.4234 219 47.8601C219 37.2969 221.411 29.1944 226.233 23.5526C231.055 17.8509 237.8 15 246.466 15C252.201 15 256.99 16.2004 260.835 18.6011C264.744 21.0018 264.35 20.3416 266.5 24.723L261.128 39.5C259.759 36.259 259.825 26.6436 257.023 24.723C254.221 22.7424 250.702 21.7521 246.466 21.7521C243.534 21.7521 240.895 22.2622 238.549 23.2825C236.268 24.3029 234.313 25.7733 232.684 27.6939C231.12 29.5545 229.915 31.8052 229.068 34.446C228.221 37.0268 227.797 39.9377 227.797 43.1787V52.5416C227.797 59.0235 229.426 64.0951 232.684 67.7562C235.942 71.4174 240.536 73.2479 246.466 73.2479C250.832 73.2479 254.481 72.2276 257.414 70.187C260.346 68.0863 259.759 58.9211 261.128 55.5L266.5 70.187C264.35 74.6284 265.168 73.638 261.128 76.2188C257.088 78.7396 252.201 80 246.466 80Z" fill="#E6E0E9" fill-opacity="0.16" shape-rendering="crispEdges"/>
<path d="M246.466 14.5C252.268 14.5 257.155 15.7141 261.097 18.1748L262.369 18.9453C262.741 19.1681 263.061 19.36 263.333 19.5312C263.891 19.8825 264.315 20.1876 264.687 20.5723C265.415 21.3267 265.894 22.3531 266.949 24.5029L267.043 24.6934L266.97 24.8936L261.598 39.6709L261.163 40.8682L260.667 39.6943C260.299 38.8227 260.039 37.559 259.81 36.1758C259.694 35.4773 259.584 34.7347 259.472 33.9805C259.359 33.2246 259.245 32.4557 259.119 31.6982C258.867 30.1789 258.576 28.7277 258.18 27.5449C257.776 26.3404 257.297 25.5179 256.74 25.1357L256.734 25.1309C254.035 23.2227 250.623 22.252 246.466 22.252C243.594 22.252 241.025 22.7503 238.752 23.7383L238.753 23.7393C236.542 24.7284 234.647 26.1516 233.066 28.0146L233.067 28.0156C231.551 29.8199 230.374 32.0111 229.544 34.5986L229.543 34.6016C228.715 37.1234 228.297 39.9808 228.297 43.1787V52.542C228.297 58.9414 229.904 63.8805 233.058 67.4238C236.201 70.9561 240.646 72.748 246.466 72.748C250.75 72.748 254.291 71.7473 257.122 69.7793C257.719 69.3516 258.192 68.5178 258.562 67.3379C258.927 66.173 259.167 64.7584 259.361 63.2734C259.458 62.5332 259.544 61.7818 259.628 61.04C259.712 60.3002 259.794 59.5691 259.887 58.877C260.07 57.5049 260.296 56.2338 260.664 55.3145L261.148 54.1016L261.598 55.3281L266.97 70.0156L267.042 70.2139L266.95 70.4053C266.421 71.499 266.058 72.2904 265.768 72.8652C265.473 73.4487 265.224 73.8699 264.894 74.2354C264.564 74.6006 264.175 74.8871 263.641 75.2324C263.132 75.5615 262.373 76.0174 261.397 76.6406L261.393 76.6436L261.392 76.6426C257.257 79.222 252.274 80.5 246.466 80.5C237.688 80.4999 230.796 77.7591 225.86 72.2305L225.858 72.2285C220.926 66.6419 218.5 58.4914 218.5 47.8604C218.5 37.2278 220.926 28.9915 225.853 23.2275C230.785 17.3962 237.679 14.5001 246.466 14.5Z" stroke="white" shape-rendering="crispEdges"/>
</g>
<g filter="url(#filter1_d_8_81)">
<path d="M191 79.9978L191 73.4794H200.747V21.5184H191L191 15H218.849V21.5184H209.102V73.4794H218.849V79.9978H191Z" fill="#E6E0E9" fill-opacity="0.16" shape-rendering="crispEdges"/>
<path d="M219.349 14.5V22.0186H209.602V72.9795H219.349V80.498H190.5V72.9795H200.247V22.0186H190.5V14.5H219.349Z" stroke="white" shape-rendering="crispEdges"/>
</g>
<g filter="url(#filter2_d_8_81)">
<path d="M153 80V15H175.334C180.369 15 184.225 16.6762 186.903 20.0286C189.634 23.319 191 27.851 191 33.6246C191 39.3983 189.634 43.9613 186.903 47.3138C184.225 50.6041 180.369 52.2493 175.334 52.2493H159.748V80H153ZM159.748 45.3582H175.334C178.012 45.3582 180.074 44.5511 181.52 42.937C183.02 41.3228 183.77 38.9807 183.77 36.0007V31.2034C183.77 28.2235 183.02 25.9265 181.52 24.3123C180.074 22.6982 178.012 21.8911 175.334 21.8911H159.748V45.3582Z" fill="#E6E0E9" fill-opacity="0.16" shape-rendering="crispEdges"/>
<path d="M175.334 14.5C180.487 14.5 184.497 16.222 187.286 19.709H187.287C190.116 23.1162 191.5 27.7756 191.5 33.625C191.5 39.4744 190.115 44.1605 187.29 47.6279L187.291 47.6289C184.5 51.0582 180.488 52.749 175.334 52.749H160.248V80.5H152.5V14.5H175.334ZM160.248 44.8584H175.334C177.906 44.8584 179.818 44.0874 181.147 42.6035L181.153 42.5967C182.539 41.1049 183.269 38.9022 183.27 36.001V31.2031C183.269 28.3044 182.54 26.1454 181.153 24.6523L181.147 24.6465L181.521 24.3125L181.147 24.6455C179.818 23.1617 177.906 22.3916 175.334 22.3916H160.248V44.8584Z" stroke="white" shape-rendering="crispEdges"/>
</g>
<g filter="url(#filter3_i_8_81)">
<path d="M124 80C120.199 80 116.68 79.3399 113.611 77.9294C110.543 76.5189 107.925 74.4485 105.757 71.7175C103.589 68.9864 101.956 65.5956 100.774 61.5443C99.5912 57.4931 99 52.7816 99 47.5C99 42.2184 99.5912 37.5669 100.774 33.5457C101.956 29.5245 103.589 26.1335 105.757 23.3726C107.925 20.6117 110.543 18.5711 113.611 17.1607C116.68 15.7502 120.199 15 124 15C127.801 15 131.207 15.7502 134.304 17.1607C137.401 18.5711 139.991 20.6117 142.159 23.3726C144.327 26.1335 146.044 29.5245 147.226 33.5457C148.409 37.5669 149 42.2184 149 47.5C149 52.7816 148.409 57.4931 147.226 61.5443C146.044 65.5956 144.327 68.9866 142.159 71.7175C139.991 74.4483 137.401 76.5189 134.304 77.9294C131.207 79.3398 127.801 80 124 80ZM124 38.6864C127.429 38.6864 126.375 72.2984 131.01 71.8075C135.645 71.3166 129.462 40.487 131.01 38.6864C132.559 36.8858 142.294 67.3106 143.139 64.7898C143.984 62.269 141.399 55.3017 141.399 52.7216C141.399 50.1415 141.399 50.0801 141.399 47.5C141.399 44.9199 137.345 38.3068 136.5 35.786C135.655 33.2653 120.51 28.3587 126 32.5C131.49 36.6413 137.716 23.7736 131.01 23.1925C124.305 22.6114 126.534 18.3838 124 18.3838C121.466 18.3838 123.738 22.6114 116.99 23.1925C110.242 23.7736 115.926 36.6413 121.5 32.5C127.074 28.3587 112.26 33.2653 111.416 35.786C110.571 38.3068 106.601 44.9199 106.601 47.5C106.601 50.0801 106.601 50.1415 106.601 52.7216C106.601 55.3017 104.912 62.269 105.757 64.7898C106.601 67.3106 115.441 36.8858 116.99 38.6864C118.538 40.487 112.355 71.3166 116.99 71.8075C121.625 72.2984 120.571 38.6864 124 38.6864Z" fill="black" fill-opacity="0.1"/>
</g>
<path d="M124 15.5C127.732 15.5 131.068 16.2357 134.097 17.6152C137.119 18.9919 139.646 20.9824 141.766 23.6816C143.889 26.3864 145.58 29.7183 146.747 33.6865C147.913 37.6519 148.5 42.2543 148.5 47.5C148.5 52.746 147.912 57.4086 146.746 61.4043C145.579 65.4024 143.889 68.7332 141.768 71.4062C139.646 74.0789 137.117 76.0988 134.097 77.4746C131.075 78.8507 127.741 79.5 124 79.5C120.256 79.5 116.811 78.8492 113.82 77.4746C110.825 76.098 108.269 74.0778 106.148 71.4062C104.03 68.7378 102.423 65.4097 101.254 61.4043C100.088 57.4086 99.5 52.746 99.5 47.5C99.5 42.2543 100.087 37.6519 101.253 33.6865C102.422 29.7111 104.03 26.3815 106.15 23.6816C108.269 20.9836 110.823 18.9927 113.82 17.6152C116.818 16.2374 120.265 15.5 124 15.5ZM124 17.8838C123.611 17.8838 123.276 17.9662 122.99 18.1387C122.707 18.3097 122.509 18.5462 122.358 18.792C122.211 19.0315 122.095 19.3034 121.987 19.5566C121.876 19.8201 121.769 20.0776 121.633 20.3379C121.367 20.8447 120.994 21.3509 120.313 21.7705C119.624 22.1956 118.583 22.5535 116.947 22.6943C116.02 22.7742 115.268 23.0692 114.697 23.5449C114.127 24.0204 113.768 24.6501 113.581 25.3447C113.212 26.7173 113.503 28.3746 114.17 29.8262C114.582 30.7227 115.154 31.5742 115.845 32.2598C115.164 32.5537 114.502 32.8659 113.898 33.1846C113.175 33.5666 112.52 33.9638 112.014 34.3555C111.53 34.7298 111.098 35.1602 110.941 35.627C110.742 36.2224 110.349 37.0813 109.856 38.0996C109.374 39.0962 108.787 40.2664 108.241 41.4043C107.691 42.5531 107.16 43.7168 106.767 44.7598C106.38 45.786 106.102 46.7569 106.102 47.5V52.7217C106.102 53.3275 106.001 54.2145 105.855 55.2734C105.713 56.3081 105.525 57.5299 105.367 58.7119C105.208 59.906 105.074 61.1126 105.033 62.1846C104.993 63.242 105.041 64.2271 105.282 64.9482C105.32 65.0617 105.419 65.2952 105.675 65.3965C105.96 65.5093 106.2 65.3714 106.306 65.292C106.422 65.2047 106.519 65.0859 106.599 64.9746C106.683 64.8572 106.769 64.717 106.855 64.5605C107.199 63.9415 107.63 62.9386 108.116 61.7041C109.092 59.2245 110.327 55.7032 111.58 52.1758C112.836 48.6399 114.108 45.0964 115.162 42.5508C115.691 41.2736 116.155 40.2722 116.526 39.6514C116.588 39.5491 116.644 39.4626 116.694 39.3896C116.695 39.3971 116.697 39.4045 116.698 39.4121C116.735 39.704 116.75 40.1018 116.744 40.6006C116.733 41.5957 116.638 42.9334 116.493 44.5068C116.202 47.6733 115.725 51.6605 115.335 55.6904C114.948 59.6874 114.656 63.6716 114.753 66.6943C114.801 68.2007 114.947 69.5069 115.245 70.4658C115.53 71.3836 116.031 72.2086 116.938 72.3047C117.396 72.3531 117.797 72.1814 118.126 71.8906C118.444 71.6096 118.707 71.2082 118.932 70.7432C119.382 69.8115 119.744 68.4867 120.049 66.9355C120.661 63.8233 121.073 59.6415 121.445 55.4756C121.819 51.2942 122.151 47.1277 122.604 44.002C122.832 42.4363 123.085 41.1624 123.378 40.2891C123.526 39.8496 123.673 39.5459 123.81 39.3613C123.876 39.2711 123.928 39.2247 123.962 39.2031C123.978 39.193 123.988 39.1889 123.992 39.1875C123.996 39.1862 123.998 39.1865 124 39.1865C124.002 39.1865 124.004 39.1862 124.008 39.1875C124.012 39.1889 124.022 39.193 124.038 39.2031C124.072 39.2247 124.124 39.2711 124.19 39.3613C124.327 39.5459 124.474 39.8496 124.622 40.2891C124.915 41.1624 125.168 42.4363 125.396 44.002C125.849 47.1277 126.181 51.2942 126.555 55.4756C126.927 59.6415 127.339 63.8233 127.951 66.9355C128.256 68.4867 128.618 69.8115 129.068 70.7432C129.293 71.2082 129.556 71.6096 129.874 71.8906C130.203 72.1814 130.604 72.3531 131.062 72.3047C131.969 72.2086 132.47 71.3836 132.755 70.4658C133.053 69.5069 133.199 68.2007 133.247 66.6943C133.344 63.6716 133.052 59.6874 132.665 55.6904C132.275 51.6605 131.798 47.6733 131.507 44.5068C131.362 42.9334 131.267 41.5957 131.256 40.6006C131.25 40.1018 131.265 39.704 131.302 39.4121C131.304 39.3939 131.307 39.3764 131.31 39.3594C131.371 39.4408 131.442 39.5407 131.52 39.6631C131.915 40.2847 132.413 41.2865 132.983 42.5635C134.121 45.1093 135.504 48.6526 136.872 52.1885C138.237 55.7163 139.585 59.2378 140.646 61.7178C141.173 62.9525 141.641 63.9553 142.01 64.5742C142.103 64.7306 142.195 64.8714 142.284 64.9883C142.369 65.0995 142.472 65.2152 142.591 65.2998C142.699 65.377 142.935 65.5047 143.212 65.3994C143.471 65.301 143.573 65.0684 143.613 64.9482C143.862 64.2058 143.844 63.2019 143.72 62.1445C143.593 61.069 143.344 59.8597 143.073 58.667C142.799 57.4584 142.508 56.2924 142.278 55.2354C142.048 54.1765 141.898 53.3061 141.898 52.7217V47.5C141.898 46.7548 141.614 45.7821 141.219 44.7559C140.817 43.7128 140.276 42.55 139.715 41.4014C139.162 40.2705 138.557 39.0859 138.07 38.0967C137.57 37.0783 137.173 36.2207 136.974 35.627C136.816 35.1571 136.376 34.7259 135.884 34.3525C135.368 33.9612 134.7 33.5644 133.96 33.1826C133.297 32.8406 132.565 32.5058 131.813 32.1934C132.503 31.5241 133.087 30.7052 133.524 29.8428C134.257 28.396 134.624 26.7408 134.316 25.3652C134.161 24.6679 133.827 24.0329 133.272 23.5518C132.717 23.0707 131.976 22.7743 131.054 22.6943C129.429 22.5536 128.393 22.1956 127.705 21.7705C127.026 21.3507 126.652 20.8438 126.383 20.3359C126.245 20.0752 126.136 19.8183 126.022 19.5547C125.913 19.301 125.794 19.0285 125.646 18.7891C125.493 18.5438 125.295 18.3079 125.011 18.1377C124.724 17.9658 124.389 17.8838 124 17.8838ZM121.967 31.4668C121.79 31.6375 121.54 31.8474 121.202 32.0986C120.037 32.9642 118.905 32.9808 117.896 32.5137C118.277 32.3722 118.655 32.2407 119.021 32.1201C119.788 31.8679 120.497 31.6687 121.085 31.5439C121.479 31.4602 121.795 31.4175 122.027 31.4043C122.008 31.4238 121.989 31.4454 121.967 31.4668ZM125.486 31.3984C125.744 31.4024 126.114 31.4484 126.587 31.5449C127.199 31.6699 127.933 31.8687 128.723 32.1211C129.054 32.227 129.394 32.3426 129.737 32.4648C128.659 32.9832 127.477 32.9878 126.301 32.1006C125.969 31.8499 125.726 31.6421 125.558 31.4736C125.531 31.4472 125.508 31.4217 125.486 31.3984Z" stroke="#F7F2FA" stroke-opacity="0.16"/>
<g filter="url(#filter4_d_8_81)">
<path d="M80.4346 20.9809V79.0878H72.08V20.9809H50V14.09H102.515L102.515 20.9809H80.4346Z" fill="#E6E0E9" fill-opacity="0.16" shape-rendering="crispEdges"/>
<path d="M103.015 13.59V21.4806H80.9346V79.588H71.5801V21.4806H49.5V13.59H103.015Z" stroke="white" shape-rendering="crispEdges"/>
</g>
<g filter="url(#filter5_d_8_81)">
<path d="M21 79V14H29.5263V47V72.6757H57V79H21Z" fill="#E6E0E9" fill-opacity="0.16" shape-rendering="crispEdges"/>
<path d="M30.0264 13.5V72.1758H57.5V79.5H20.5V13.5H30.0264Z" stroke="white" shape-rendering="crispEdges"/>
</g>
<g filter="url(#filter6_d_8_81)">
<mask id="path-13-inside-1_8_81" fill="white">
<path d="M281 0V93H4V0H281ZM9 88H276V5H9V88Z"/>
</mask>
<path d="M281 0V93H4V0H281ZM9 88H276V5H9V88Z" fill="black" fill-opacity="0.8" shape-rendering="crispEdges"/>
<path d="M281 0H286V-5H281V0ZM281 93V98H286V93H281ZM4 93H-1V98H4V93ZM4 0V-5H-1V0H4ZM9 88H4V93H9V88ZM276 88V93H281V88H276ZM276 5H281V0H276V5ZM9 5V0H4V5H9ZM281 0H276V93H281H286V0H281ZM281 93V88H4V93V98H281V93ZM4 93H9V0H4H-1V93H4ZM4 0V5H281V0V-5H4V0ZM9 88V93H276V88V83H9V88ZM276 88H281V5H276H271V88H276ZM276 5V0H9V5V10H276V5ZM9 5H4V88H9H14V5H9Z" fill="white" mask="url(#path-13-inside-1_8_81)"/>
</g>
<defs>
<filter id="filter0_d_8_81" x="214" y="14" width="57.5853" height="75" filterUnits="userSpaceOnUse" color-interpolation-filters="sRGB">
<feFlood flood-opacity="0" result="BackgroundImageFix"/>
<feColorMatrix in="SourceAlpha" type="matrix" values="0 0 0 0 0 0 0 0 0 0 0 0 0 0 0 0 0 0 127 0" result="hardAlpha"/>
<feOffset dy="4"/>
<feGaussianBlur stdDeviation="2"/>
<feComposite in2="hardAlpha" operator="out"/>
<feColorMatrix type="matrix" values="0 0 0 0 0 0 0 0 0 0 0 0 0 0 0 0 0 0 0.25 0"/>
<feBlend mode="normal" in2="BackgroundImageFix" result="effect1_dropShadow_8_81"/>
<feBlend mode="normal" in="SourceGraphic" in2="effect1_dropShadow_8_81" result="shape"/>
</filter>
<filter id="filter1_d_8_81" x="186" y="14" width="37.8486" height="74.9978" filterUnits="userSpaceOnUse" color-interpolation-filters="sRGB">
<feFlood flood-opacity="0" result="BackgroundImageFix"/>
<feColorMatrix in="SourceAlpha" type="matrix" values="0 0 0 0 0 0 0 0 0 0 0 0 0 0 0 0 0 0 127 0" result="hardAlpha"/>
<feOffset dy="4"/>
<feGaussianBlur stdDeviation="2"/>
<feComposite in2="hardAlpha" operator="out"/>
<feColorMatrix type="matrix" values="0 0 0 0 0 0 0 0 0 0 0 0 0 0 0 0 0 0 0.25 0"/>
<feBlend mode="normal" in2="BackgroundImageFix" result="effect1_dropShadow_8_81"/>
<feBlend mode="normal" in="SourceGraphic" in2="effect1_dropShadow_8_81" result="shape"/>
</filter>
<filter id="filter2_d_8_81" x="148" y="14" width="48" height="75" filterUnits="userSpaceOnUse" color-interpolation-filters="sRGB">
<feFlood flood-opacity="0" result="BackgroundImageFix"/>
<feColorMatrix in="SourceAlpha" type="matrix" values="0 0 0 0 0 0 0 0 0 0 0 0 0 0 0 0 0 0 127 0" result="hardAlpha"/>
<feOffset dy="4"/>
<feGaussianBlur stdDeviation="2"/>
<feComposite in2="hardAlpha" operator="out"/>
<feColorMatrix type="matrix" values="0 0 0 0 0 0 0 0 0 0 0 0 0 0 0 0 0 0 0.25 0"/>
<feBlend mode="normal" in2="BackgroundImageFix" result="effect1_dropShadow_8_81"/>
<feBlend mode="normal" in="SourceGraphic" in2="effect1_dropShadow_8_81" result="shape"/>
</filter>
<filter id="filter3_i_8_81" x="99" y="15" width="50" height="69" filterUnits="userSpaceOnUse" color-interpolation-filters="sRGB">
<feFlood flood-opacity="0" result="BackgroundImageFix"/>
<feBlend mode="normal" in="SourceGraphic" in2="BackgroundImageFix" result="shape"/>
<feColorMatrix in="SourceAlpha" type="matrix" values="0 0 0 0 0 0 0 0 0 0 0 0 0 0 0 0 0 0 127 0" result="hardAlpha"/>
<feOffset dy="4"/>
<feGaussianBlur stdDeviation="2"/>
<feComposite in2="hardAlpha" operator="arithmetic" k2="-1" k3="1"/>
<feColorMatrix type="matrix" values="0 0 0 0 0 0 0 0 0 0 0 0 0 0 0 0 0 0 0.25 0"/>
<feBlend mode="normal" in2="shape" result="effect1_innerShadow_8_81"/>
</filter>
<filter id="filter4_d_8_81" x="45" y="13.09" width="62.5145" height="74.9978" filterUnits="userSpaceOnUse" color-interpolation-filters="sRGB">
<feFlood flood-opacity="0" result="BackgroundImageFix"/>
<feColorMatrix in="SourceAlpha" type="matrix" values="0 0 0 0 0 0 0 0 0 0 0 0 0 0 0 0 0 0 127 0" result="hardAlpha"/>
<feOffset dy="4"/>
<feGaussianBlur stdDeviation="2"/>
<feComposite in2="hardAlpha" operator="out"/>
<feColorMatrix type="matrix" values="0 0 0 0 0 0 0 0 0 0 0 0 0 0 0 0 0 0 0.25 0"/>
<feBlend mode="normal" in2="BackgroundImageFix" result="effect1_dropShadow_8_81"/>
<feBlend mode="normal" in="SourceGraphic" in2="effect1_dropShadow_8_81" result="shape"/>
</filter>
<filter id="filter5_d_8_81" x="16" y="13" width="46" height="75" filterUnits="userSpaceOnUse" color-interpolation-filters="sRGB">
<feFlood flood-opacity="0" result="BackgroundImageFix"/>
<feColorMatrix in="SourceAlpha" type="matrix" values="0 0 0 0 0 0 0 0 0 0 0 0 0 0 0 0 0 0 127 0" result="hardAlpha"/>
<feOffset dy="4"/>
<feGaussianBlur stdDeviation="2"/>
<feComposite in2="hardAlpha" operator="out"/>
<feColorMatrix type="matrix" values="0 0 0 0 0 0 0 0 0 0 0 0 0 0 0 0 0 0 0.25 0"/>
<feBlend mode="normal" in2="BackgroundImageFix" result="effect1_dropShadow_8_81"/>
<feBlend mode="normal" in="SourceGraphic" in2="effect1_dropShadow_8_81" result="shape"/>
</filter>
<filter id="filter6_d_8_81" x="0" y="0" width="285" height="101" filterUnits="userSpaceOnUse" color-interpolation-filters="sRGB">
<feFlood flood-opacity="0" result="BackgroundImageFix"/>
<feColorMatrix in="SourceAlpha" type="matrix" values="0 0 0 0 0 0 0 0 0 0 0 0 0 0 0 0 0 0 127 0" result="hardAlpha"/>
<feOffset dy="4"/>
<feGaussianBlur stdDeviation="2"/>
<feComposite in2="hardAlpha" operator="out"/>
<feColorMatrix type="matrix" values="0 0 0 0 0 0 0 0 0 0 0 0 0 0 0 0 0 0 0.25 0"/>
<feBlend mode="normal" in2="BackgroundImageFix" result="effect1_dropShadow_8_81"/>
<feBlend mode="normal" in="SourceGraphic" in2="effect1_dropShadow_8_81" result="shape"/>
</filter>
</defs>
</svg>
